<svg width="141" height="75" viewBox="0 0 141 75" fill="none" xmlns="http://www.w3.org/2000/svg">
<path d="M47.5904 72.6563L47.5788 65.6367L44.1645 71.5664H43.8732L40.4589 65.6602V72.6563H39.8762V64.4531H40.3773L44.0246 70.793L47.672 64.4531H48.1614L48.1731 72.6563H47.5904ZM54.2099 72.7148C53.1767 72.7148 52.3727 72.414 51.7977 71.8125C51.2307 71.211 50.9471 70.3321 50.9471 69.1758V64.4531H51.5413V69.1523C51.5413 70.1602 51.7706 70.914 52.2289 71.4141C52.6873 71.9141 53.3515 72.1641 54.2215 72.1641C55.0838 72.1641 55.7442 71.9141 56.2025 71.4141C56.6609 70.914 56.89 70.1602 56.89 69.1523V64.4531H57.4843V69.1758C57.4843 70.3321 57.197 71.211 56.622 71.8125C56.0472 72.414 55.2431 72.7148 54.2099 72.7148ZM53.2194 63.4688C53.1028 63.4688 53.0019 63.4297 52.9164 63.3516C52.8388 63.2657 52.7999 63.1641 52.7999 63.0469C52.7999 62.9218 52.8388 62.8204 52.9164 62.7422C53.0019 62.664 53.1028 62.625 53.2194 62.625C53.3359 62.625 53.4331 62.668 53.5107 62.7539C53.5962 62.8321 53.6389 62.9297 53.6389 63.0469C53.6389 63.1641 53.5962 63.2657 53.5107 63.3516C53.4253 63.4297 53.3282 63.4688 53.2194 63.4688ZM55.2237 63.4688C55.1149 63.4688 55.0179 63.4297 54.9323 63.3516C54.8469 63.2657 54.8042 63.1641 54.8042 63.0469C54.8042 62.9297 54.8431 62.8321 54.9207 62.7539C55.0062 62.668 55.1071 62.625 55.2237 62.625C55.3402 62.625 55.4374 62.664 55.515 62.7422C55.6005 62.8204 55.6432 62.9218 55.6432 63.0469C55.6432 63.1641 55.6005 63.2657 55.515 63.3516C55.4374 63.4297 55.3402 63.4688 55.2237 63.4688ZM66.8995 64.4531V72.6563H66.4101L60.8517 65.5312V72.6563H60.2574V64.4531H60.7584L66.3052 71.5781V64.4531H66.8995ZM73.1974 72.7148C72.3972 72.7148 71.6747 72.5352 71.03 72.1758C70.3929 71.8164 69.888 71.3203 69.5151 70.6875C69.1499 70.0547 68.9674 69.3437 68.9674 68.5547C68.9674 67.7657 69.1499 67.0547 69.5151 66.4219C69.888 65.7891 70.3929 65.293 71.03 64.9336C71.6747 64.5742 72.3972 64.3945 73.1974 64.3945C73.7878 64.3945 74.3316 64.4922 74.8288 64.6875C75.3259 64.875 75.7494 65.1562 76.099 65.5312L75.7261 65.918C75.0736 65.2696 74.2384 64.9453 73.2207 64.9453C72.5371 64.9453 71.9156 65.1015 71.3563 65.4141C70.7969 65.7266 70.358 66.1602 70.0395 66.7148C69.7209 67.2618 69.5617 67.875 69.5617 68.5547C69.5617 69.2344 69.7209 69.8516 70.0395 70.4063C70.358 70.9532 70.7969 71.3828 71.3563 71.6953C71.9156 72.0079 72.5371 72.1641 73.2207 72.1641C74.2306 72.1641 75.0657 71.8359 75.7261 71.1797L76.099 71.5664C75.7494 71.9414 75.3221 72.2265 74.8172 72.4219C74.32 72.6172 73.7801 72.7148 73.1974 72.7148ZM84.7317 64.4531V72.6563H84.1374V68.7539H78.6839V72.6563H78.0896V64.4531H78.6839V68.2266H84.1374V64.4531H84.7317ZM93.2086 72.1172V72.6563H87.5802V64.4531H93.0338V64.9922H88.1745V68.2266H92.5211V68.7539H88.1745V72.1172H93.2086ZM102.018 64.4531V72.6563H101.528L95.9698 65.5312V72.6563H95.3755V64.4531H95.8765L101.423 71.5781V64.4531H102.018Z" fill="white"/>
<path d="M11.6413 52.0937H3.12541L1.25862 56.2492H0.10498L6.859 41.4836H7.92873L14.6827 56.2492H13.5291L11.6413 52.0937ZM11.2428 51.1867L7.38338 42.6648L3.54491 51.1867H11.2428ZM19.9492 56.3547C18.8724 56.3547 17.8446 56.1719 16.8658 55.8063C15.9009 55.4266 15.1458 54.9414 14.6005 54.3508L15.0829 53.5492C15.6003 54.0977 16.2925 54.5477 17.1595 54.8992C18.0404 55.2367 18.9633 55.4055 19.9282 55.4055C21.3265 55.4055 22.3823 55.1383 23.0954 54.6039C23.8086 54.0695 24.1652 53.3734 24.1652 52.5156C24.1652 51.8547 23.9764 51.3273 23.5988 50.9336C23.2213 50.5398 22.7528 50.2375 22.1935 50.0266C21.6342 49.8156 20.8791 49.5977 19.9282 49.3727C18.8515 49.1055 17.9845 48.8453 17.3273 48.5922C16.684 48.3391 16.1317 47.9523 15.6702 47.432C15.2227 46.8977 14.999 46.1875 14.999 45.3016C14.999 44.5844 15.1878 43.9305 15.5653 43.3398C15.9429 42.7352 16.5162 42.257 17.2853 41.9055C18.0684 41.5539 19.0402 41.3781 20.2009 41.3781C21.0119 41.3781 21.809 41.4977 22.592 41.7367C23.3751 41.9758 24.0533 42.2992 24.6266 42.707L24.2281 43.5719C23.6408 43.1641 22.9906 42.8547 22.2774 42.6437C21.5782 42.4328 20.886 42.3273 20.2009 42.3273C18.8445 42.3273 17.8167 42.6016 17.1175 43.15C16.4183 43.6984 16.0687 44.4086 16.0687 45.2805C16.0687 45.9414 16.2575 46.4688 16.6351 46.8625C17.0126 47.2563 17.4811 47.5586 18.0404 47.7695C18.5998 47.9805 19.3619 48.2055 20.3267 48.4445C21.4034 48.7117 22.2634 48.9719 22.9067 49.225C23.5499 49.4781 24.0953 49.8648 24.5427 50.3852C25.0042 50.8914 25.2349 51.5805 25.2349 52.4523C25.2349 53.1695 25.0391 53.8234 24.6476 54.4141C24.2701 55.0047 23.6827 55.4758 22.8857 55.8273C22.0886 56.1789 21.1098 56.3547 19.9492 56.3547ZM28.6828 42.4539V48.7609H36.5065V49.7312H28.6828V56.2492H27.613V41.4836H37.4294V42.4539H28.6828ZM53.9095 56.2492L50.4067 51.3133C49.8893 51.3836 49.4138 51.4187 48.9804 51.4187H44.7853V56.2492H43.7156V41.4836H48.9804C50.8262 41.4836 52.2735 41.9266 53.3222 42.8125C54.371 43.6844 54.8954 44.9008 54.8954 46.4617C54.8954 47.6289 54.5947 48.6133 53.9934 49.4148C53.4061 50.2023 52.5601 50.7578 51.4554 51.0812L55.1261 56.2492H53.9095ZM48.9804 50.4695C50.5465 50.4695 51.7421 50.125 52.5671 49.4359C53.3921 48.7328 53.8047 47.7414 53.8047 46.4617C53.8047 45.182 53.3921 44.1977 52.5671 43.5086C51.7421 42.8055 50.5465 42.4539 48.9804 42.4539H44.7853V50.4695H48.9804ZM66.4679 50.9969H57.05C57.078 51.8547 57.2947 52.6211 57.7002 53.2961C58.1057 53.957 58.6511 54.4703 59.3363 54.8359C60.0355 55.2016 60.8185 55.3844 61.6855 55.3844C62.3987 55.3844 63.0559 55.2578 63.6572 55.0047C64.2725 54.7375 64.7828 54.3508 65.1884 53.8445L65.7966 54.5406C65.3212 55.1172 64.7199 55.5602 63.9928 55.8695C63.2796 56.1789 62.5035 56.3336 61.6645 56.3336C60.5738 56.3336 59.602 56.0945 58.749 55.6164C57.896 55.1383 57.2248 54.4773 56.7354 53.6336C56.2599 52.7898 56.0222 51.8266 56.0222 50.7437C56.0222 49.675 56.2459 48.7187 56.6934 47.875C57.1549 47.0172 57.7841 46.3492 58.5812 45.8711C59.3782 45.393 60.2732 45.1539 61.266 45.1539C62.2588 45.1539 63.1468 45.393 63.9299 45.8711C64.7269 46.3352 65.3492 46.9891 65.7966 47.8328C66.2581 48.6766 66.4888 49.6328 66.4888 50.7016L66.4679 50.9969ZM61.266 46.082C60.4969 46.082 59.8047 46.2578 59.1895 46.6094C58.5742 46.9469 58.0778 47.432 57.7002 48.0648C57.3367 48.6836 57.1269 49.3867 57.071 50.1742H65.461C65.4191 49.3867 65.2093 48.6836 64.8318 48.0648C64.4542 47.4461 63.9578 46.9609 63.3425 46.6094C62.7273 46.2578 62.0351 46.082 61.266 46.082ZM68.4748 40.5977H69.5236V56.2492H68.4748V40.5977ZM76.9643 56.3336C75.9295 56.3336 74.9926 56.0945 74.1536 55.6164C73.3286 55.1383 72.6784 54.4773 72.2029 53.6336C71.7275 52.7758 71.4898 51.8125 71.4898 50.7437C71.4898 49.675 71.7275 48.7187 72.2029 47.875C72.6784 47.0172 73.3286 46.3492 74.1536 45.8711C74.9926 45.393 75.9295 45.1539 76.9643 45.1539C77.9991 45.1539 78.929 45.393 79.754 45.8711C80.593 46.3492 81.2503 47.0172 81.7257 47.875C82.2011 48.7187 82.4389 49.675 82.4389 50.7437C82.4389 51.8125 82.2011 52.7758 81.7257 53.6336C81.2503 54.4773 80.593 55.1383 79.754 55.6164C78.929 56.0945 77.9991 56.3336 76.9643 56.3336ZM76.9643 55.3844C77.8033 55.3844 78.5514 55.1875 79.2087 54.7937C79.8799 54.4 80.4043 53.8516 80.7818 53.1484C81.1733 52.4453 81.3691 51.6437 81.3691 50.7437C81.3691 49.8437 81.1733 49.0422 80.7818 48.3391C80.4043 47.6359 79.8799 47.0875 79.2087 46.6937C78.5514 46.3 77.8033 46.1031 76.9643 46.1031C76.1253 46.1031 75.3702 46.3 74.699 46.6937C74.0418 47.0875 73.5174 47.6359 73.1259 48.3391C72.7483 49.0422 72.5595 49.8437 72.5595 50.7437C72.5595 51.6437 72.7483 52.4453 73.1259 53.1484C73.5174 53.8516 74.0418 54.4 74.699 54.7937C75.3702 55.1875 76.1253 55.3844 76.9643 55.3844ZM88.7759 56.3336C87.7132 56.3336 86.7623 56.0945 85.9233 55.6164C85.0843 55.1383 84.4271 54.4773 83.9516 53.6336C83.4762 52.7758 83.2385 51.8125 83.2385 50.7437C83.2385 49.6609 83.4762 48.6977 83.9516 47.8539C84.4271 46.9961 85.0843 46.3352 85.9233 45.8711C86.7623 45.393 87.7132 45.1539 88.7759 45.1539C89.6569 45.1539 90.4539 45.3297 91.1671 45.6812C91.8942 46.0187 92.4815 46.518 92.929 47.1789L92.1529 47.7484C91.7614 47.2 91.272 46.7922 90.6847 46.525C90.1114 46.2437 89.4751 46.1031 88.7759 46.1031C87.9229 46.1031 87.1538 46.3 86.4687 46.6937C85.7974 47.0734 85.2661 47.6148 84.8745 48.318C84.497 49.0211 84.3082 49.8297 84.3082 50.7437C84.3082 51.6578 84.497 52.4664 84.8745 53.1695C85.2661 53.8727 85.7974 54.4211 86.4687 54.8148C87.1538 55.1945 87.9229 55.3844 88.7759 55.3844C89.4751 55.3844 90.1114 55.2508 90.6847 54.9836C91.272 54.7023 91.7614 54.2875 92.1529 53.7391L92.929 54.3086C92.4815 54.9695 91.8942 55.4758 91.1671 55.8273C90.4539 56.1648 89.6569 56.3336 88.7759 56.3336ZM98.5018 45.1539C99.8582 45.1539 100.9 45.5055 101.627 46.2086C102.354 46.8977 102.718 47.9172 102.718 49.2672V56.2492H101.711V54.2875C101.361 54.9344 100.851 55.4406 100.18 55.8063C99.5086 56.1578 98.7045 56.3336 97.7676 56.3336C96.5511 56.3336 95.5862 56.0453 94.8731 55.4687C94.1739 54.8922 93.8243 54.1328 93.8243 53.1906C93.8243 52.2766 94.1459 51.5383 94.7892 50.9758C95.4464 50.3992 96.4882 50.1109 97.9145 50.1109H101.669V49.225C101.669 48.1984 101.389 47.418 100.83 46.8836C100.285 46.3492 99.4806 46.082 98.4179 46.082C97.6907 46.082 96.9916 46.2086 96.3204 46.4617C95.6631 46.7148 95.1038 47.0523 94.6423 47.4742L94.118 46.7148C94.6633 46.2227 95.3205 45.843 96.0896 45.5758C96.8587 45.2945 97.6628 45.1539 98.5018 45.1539ZM97.9145 55.4687C98.8234 55.4687 99.5925 55.2578 100.222 54.8359C100.865 54.4141 101.347 53.8023 101.669 53.0008V50.9336H97.9354C96.8587 50.9336 96.0756 51.1305 95.5862 51.5242C95.1108 51.918 94.8731 52.4594 94.8731 53.1484C94.8731 53.8656 95.1388 54.4352 95.6701 54.857C96.2015 55.2648 96.9496 55.4687 97.9145 55.4687ZM111.213 55.5531C110.947 55.8062 110.612 56.0031 110.206 56.1437C109.815 56.2703 109.402 56.3336 108.969 56.3336C108.018 56.3336 107.284 56.0734 106.766 55.5531C106.249 55.0187 105.99 54.2805 105.99 53.3383V46.1453H103.977V45.2383H105.99V42.8336H107.039V45.2383H110.521V46.1453H107.039V53.2328C107.039 53.95 107.207 54.4984 107.542 54.8781C107.892 55.2438 108.402 55.4266 109.074 55.4266C109.759 55.4266 110.325 55.2227 110.773 54.8148L111.213 55.5531ZM112.879 45.2383H113.928V56.2492H112.879V45.2383ZM113.404 42.5594C113.166 42.5594 112.963 42.482 112.795 42.3273C112.627 42.1586 112.544 41.9547 112.544 41.7156C112.544 41.4766 112.627 41.2727 112.795 41.1039C112.963 40.9352 113.166 40.8508 113.404 40.8508C113.641 40.8508 113.844 40.9352 114.012 41.1039C114.18 41.2586 114.263 41.4555 114.263 41.6945C114.263 41.9336 114.18 42.1375 114.012 42.3063C113.844 42.475 113.641 42.5594 113.404 42.5594ZM121.368 56.3336C120.334 56.3336 119.397 56.0945 118.558 55.6164C117.733 55.1383 117.083 54.4773 116.607 53.6336C116.132 52.7758 115.894 51.8125 115.894 50.7437C115.894 49.675 116.132 48.7187 116.607 47.875C117.083 47.0172 117.733 46.3492 118.558 45.8711C119.397 45.393 120.334 45.1539 121.368 45.1539C122.403 45.1539 123.333 45.393 124.158 45.8711C124.997 46.3492 125.654 47.0172 126.13 47.875C126.605 48.7187 126.843 49.675 126.843 50.7437C126.843 51.8125 126.605 52.7758 126.13 53.6336C125.654 54.4773 124.997 55.1383 124.158 55.6164C123.333 56.0945 122.403 56.3336 121.368 56.3336ZM121.368 55.3844C122.207 55.3844 122.956 55.1875 123.613 54.7937C124.284 54.4 124.808 53.8516 125.186 53.1484C125.578 52.4453 125.773 51.6437 125.773 50.7437C125.773 49.8437 125.578 49.0422 125.186 48.3391C124.808 47.6359 124.284 47.0875 123.613 46.6937C122.956 46.3 122.207 46.1031 121.368 46.1031C120.529 46.1031 119.774 46.3 119.103 46.6937C118.446 47.0875 117.922 47.6359 117.53 48.3391C117.152 49.0422 116.964 49.8437 116.964 50.7437C116.964 51.6437 117.152 52.4453 117.53 53.1484C117.922 53.8516 118.446 54.4 119.103 54.7937C119.774 55.1875 120.529 55.3844 121.368 55.3844ZM134.187 45.1539C135.557 45.1539 136.641 45.5547 137.438 46.3562C138.235 47.1578 138.633 48.3109 138.633 49.8156V56.2492H137.585V49.9C137.585 48.6625 137.27 47.7203 136.641 47.0734C136.025 46.4266 135.159 46.1031 134.04 46.1031C132.753 46.1031 131.74 46.4898 130.998 47.2633C130.257 48.0367 129.887 49.0773 129.887 50.3852V56.2492H128.838V45.2383H129.845V47.6219C130.222 46.8484 130.782 46.2437 131.523 45.8078C132.278 45.3719 133.166 45.1539 134.187 45.1539Z" fill="white"/>
<path fill-rule="evenodd" clip-rule="evenodd" d="M62.6436 31.7955C62.6436 31.7529 62.6782 31.7188 62.72 31.7188C63.0728 31.7188 64.545 31.7188 64.8987 31.7188C64.9407 31.7188 64.9741 31.7529 64.9741 31.7955C64.9741 32.1534 64.9741 33.628 64.9741 33.9859C64.9741 34.0285 64.9407 34.0625 64.8987 34.0625C64.545 34.0625 63.0728 34.0625 62.72 34.0625C62.6782 34.0625 62.6436 34.0285 62.6436 33.9859C62.6436 33.628 62.6436 32.1534 62.6436 31.7955Z" fill="white"/>
<path fill-rule="evenodd" clip-rule="evenodd" d="M65.8296 31.7955C65.8296 31.7529 65.8641 31.7188 65.906 31.7188C66.2589 31.7188 67.7309 31.7188 68.0848 31.7188C68.1267 31.7188 68.1602 31.7529 68.1602 31.7955C68.1602 32.1534 68.1602 33.628 68.1602 33.9859C68.1602 34.0285 68.1267 34.0625 68.0848 34.0625C67.7309 34.0625 66.2589 34.0625 65.906 34.0625C65.8641 34.0625 65.8296 34.0285 65.8296 33.9859C65.8296 33.628 65.8296 32.1534 65.8296 31.7955Z" fill="white"/>
<path fill-rule="evenodd" clip-rule="evenodd" d="M65.8297 28.4557C65.8297 28.413 65.8642 28.3789 65.9062 28.3789C66.259 28.3789 67.731 28.3789 68.0849 28.3789C68.1269 28.3789 68.1603 28.413 68.1603 28.4557C68.1603 28.8136 68.1603 30.2881 68.1603 30.6461C68.1603 30.6887 68.1269 30.7227 68.0849 30.7227C67.731 30.7227 66.259 30.7227 65.9062 30.7227C65.8642 30.7227 65.8297 30.6887 65.8297 30.6461C65.8297 30.2881 65.8297 28.8136 65.8297 28.4557Z" fill="white"/>
<path fill-rule="evenodd" clip-rule="evenodd" d="M62.6434 28.4557C62.6434 28.413 62.678 28.3789 62.7198 28.3789C63.0727 28.3789 64.5448 28.3789 64.8986 28.3789C64.9405 28.3789 64.974 28.413 64.974 28.4557C64.974 28.8136 64.974 30.2881 64.974 30.6461C64.974 30.6887 64.9405 30.7227 64.8986 30.7227C64.5448 30.7227 63.0727 30.7227 62.7198 30.7227C62.678 30.7227 62.6434 30.6887 62.6434 30.6461C62.6434 30.2881 62.6434 28.8136 62.6434 28.4557Z" fill="white"/>
<path fill-rule="evenodd" clip-rule="evenodd" d="M87.804 3.63492H89.931H89.9423H89.9649H89.9875H89.9989H90.0214H90.0441H90.0667L90.078 3.64638H90.1006H90.1232H90.1346H90.1572L90.1799 3.65795H90.1911H90.2138L90.2364 3.66941H90.2477H90.2703L90.293 3.68098H90.3042H90.3269L90.3495 3.69244H90.3608L90.3835 3.7039H90.4061L90.4174 3.71546H90.4401L90.4514 3.72693L90.474 3.73849H90.4966L90.508 3.74995H90.5305L90.5419 3.76141L90.5645 3.77298L90.5759 3.78444H90.5984L90.6098 3.79601L90.6324 3.80747L90.6437 3.81893H90.6663L90.6777 3.8305L90.7002 3.84196L90.7116 3.85352L90.7342 3.86498L90.7455 3.87645H90.7568H90.7681L90.7794 3.88801L90.8021 3.89947L90.8133 3.91104L90.8248 3.9225L90.8474 3.93396L90.8587 3.94553L90.8813 3.95699L90.8926 3.96855L90.904 3.98002L90.9265 4.00304L90.9379 4.0145L90.9491 4.02607L90.9605 4.03753L90.9831 4.04899L90.9944 4.06056L91.0057 4.07202L91.0171 4.09505L91.0396 4.10651L95.8705 9.08742H95.8819V9.09888H95.8932V9.11034H95.9045H95.9158V9.12191H95.9271H95.9385V9.13337H95.9497H95.961H95.9724H95.9836V9.14494H95.995H96.0063H96.0175H96.0289V9.13337H96.0402H96.0515H96.0628H96.0742V9.12191H96.0856H96.0968V9.11034H96.1082L98.1106 7.76457L98.1219 7.753L98.1446 7.74155L98.1558 7.72997L98.1785 7.71851L98.1897 7.70706L98.2125 7.69548H98.2236L98.2464 7.68403L98.2577 7.67245L98.2803 7.66099H98.2916L98.3143 7.64954L98.3256 7.63797L98.3482 7.62652H98.3595L98.3821 7.61494H98.3934L98.416 7.60348L98.4275 7.59203H98.4499L98.4614 7.58045H98.484L98.4953 7.569H98.5179L98.5406 7.55742H98.5518L98.5745 7.54597H98.5857H98.6084L98.6197 7.53451H98.6423H98.6649L98.6762 7.52293H98.6988H98.7103L98.7328 7.51148H98.7555H98.7668H98.7894H98.8007L98.8234 7.49991H98.8459H98.8573H98.8799H98.8912H98.9138H98.9366H98.9477H98.9705H98.9817H99.0044H99.027H99.0383H99.0609H99.0722H99.0948H99.1175H99.1287L99.1514 7.51148H99.1627H99.1854H99.208H99.2194L99.2419 7.52293H99.2533H99.2759L99.2872 7.53451H99.3098H99.3211L99.3437 7.54597H99.3664H99.3777L99.4004 7.55742H99.4117L99.4343 7.569H99.4457L99.4682 7.58045H99.4796L99.5022 7.59203H99.5135L99.5361 7.60348H99.5474L99.57 7.61494L99.5813 7.62652H99.6039L99.6153 7.63797L99.6378 7.64954H99.6493L99.6719 7.66099L99.6832 7.67245H99.6945L99.7171 7.68403L99.7285 7.69548L99.751 7.70706L99.7624 7.71851H99.785L99.7963 7.72997L99.8076 7.74155L99.8302 7.753L99.8416 7.76457L99.8528 7.77602L99.8756 7.78748L99.8867 7.79905L99.8982 7.81051L99.9208 7.82209L99.9321 7.83354L99.9434 7.845L99.966 7.85658L99.9773 7.86803L99.9887 7.87961L99.9999 7.89105L100.023 7.90252L100.034 7.91409L100.045 7.92554L100.057 7.93712L100.068 7.94857L100.09 7.9716L100.102 7.98306L100.113 7.99464L100.124 8.00609L100.136 8.01755L100.147 8.04057L100.17 8.05215L100.181 8.0636L100.192 8.07506L100.204 8.09809L100.215 8.10967L100.226 8.12112L116.088 29.3098L119.9 34.3942L119.957 34.4977L119.991 34.6012L120.025 34.7046V34.8082L120.013 34.9233L119.991 35.0269L119.946 35.1304L119.878 35.2223L119.81 35.3028L119.719 35.3604L119.629 35.4179L119.527 35.4524L119.425 35.464H119.312L119.21 35.4409L107.908 32.4731L87.8379 27.1818L78.6966 24.72L68.0507 21.8329V21.8098L65.0865 21.0275L58.2532 23.5008L51.2953 26.0429L40.7286 29.9425H40.6946L40.6607 29.9539H40.6268L40.5929 29.9425L40.559 29.9309L40.5363 29.908L40.5024 29.8849L40.4797 29.862L40.4684 29.8274L40.4571 29.8044L40.4458 29.77V29.7354V27.6189H40.4571H37.3571V31.0928V31.1848V31.2192L37.3459 31.2423L37.3346 31.2768L37.312 31.2998L37.2893 31.3228L37.2667 31.3459L37.2327 31.3573L22.412 37.5H22.2763L22.1745 37.4079L22.1405 37.4309L22.1519 37.2928L22.2877 37.1779L36.9725 31.0467V30.0575L36.9611 27.4118V27.3773L36.9725 27.3543L36.9838 27.3198L36.9951 27.2967L37.0178 27.2738L37.0404 27.2507L37.0743 27.2277L37.097 27.2162H37.1309L37.1649 27.2047H40.6494H40.6946L40.7286 27.2162L40.7625 27.2277L40.7852 27.2507L40.8077 27.2738L40.8305 27.3082L40.8531 27.3427L40.8644 27.3773V27.4118V29.4248L52.5738 25.0767L52.5852 25.042L53.1621 24.8236L53.2526 24.72L65.3128 12.1127L66.9645 10.3757L66.9759 10.3642L66.9872 10.3528L66.9984 10.3412L67.0099 10.3297L67.0212 10.3182H67.0325L67.0438 10.3067L67.0551 10.2952L67.0664 10.2837L67.0777 10.2722L67.0891 10.2606H67.1004L67.1116 10.2492L67.123 10.2377L67.1343 10.2262H67.1456L67.1569 10.2147L67.1682 10.2031L67.1795 10.1917H67.1908L67.2022 10.1802L67.2134 10.1686H67.2247L67.2361 10.1572H67.2588L67.2701 10.1456L67.2814 10.1342H67.2927L67.304 10.1227H67.3154L67.3266 10.1111H67.3379L67.3605 10.0997H67.3719L67.3832 10.0881H67.3944L67.4058 10.0766H67.4171L67.4284 10.0652H67.451L67.4623 10.0536H67.4736H67.4851L67.4964 10.0422H67.5075L67.5303 10.0306H67.5416H67.5529H67.5642L67.5755 10.0191H67.5982H67.6094L67.6207 10.0077H67.6321H67.6434H67.666H67.6773L67.6886 9.99609H67.6999H67.7225H67.7338H67.7453H67.7565H67.7679L67.7904 9.98464H67.8018H67.8131H67.8244H67.847H67.8584H67.8696H67.881H67.9035H67.9149H67.9262H67.9375H67.9601H67.9714L67.9828 9.99609H67.9942H68.0055H68.0281H68.0394H68.0507H68.062L68.0846 10.0077H68.0959H68.1073H68.1185L68.1298 10.0191H68.1524H68.1638H68.1751L68.1863 10.0306H68.209H68.2205L68.2317 10.0422H68.243H68.2544L68.277 10.0536H68.2883L68.2995 10.0652H68.3109H68.3222L68.3448 10.0766H68.3561L68.3674 10.0881H68.3787L68.3901 10.0997H68.4014L68.424 10.1111L68.4353 10.1227H68.4467L68.458 10.1342H68.4693L68.4806 10.1456H68.4919L68.5145 10.1572L68.5258 10.1686H68.5372L68.5484 10.1802L68.5598 10.1917L68.5711 10.2031H68.5824L68.5937 10.2147L68.605 10.2262H68.6164L68.6276 10.2377L72.1914 12.8948H72.2027L72.214 12.9063H72.2253L72.2368 12.9179L72.2479 12.9294H72.2592H72.2707V12.9409H72.2818H72.2933L72.3046 12.9524H72.3158H72.3272L72.3385 12.9639H72.3498H72.3611H72.3724H72.3838H72.395H72.4064H72.4177V12.9755H72.4289H72.4403H72.4516L72.4629 12.9639H72.4742H72.4855H72.4968H72.5082H72.5196H72.5308L72.5421 12.9524H72.5535H72.5648L72.5761 12.9409H72.5874H72.5987V12.9294H72.61H72.6213L72.6327 12.9179L72.6439 12.9063H72.6552L72.6666 12.8948H72.6778V12.8835H72.6892L72.7005 12.8719L72.7117 12.8604L72.7231 12.8488L72.7345 12.8374L72.7458 12.8259L75.133 10.0422L79.2397 5.29141L82.9165 1.05819L83.3917 0.517638L83.4144 0.506067L83.4256 0.483039L83.437 0.471581L83.4595 0.460123L83.471 0.437094L83.4823 0.425524L83.5049 0.414066L83.5162 0.391037L83.5388 0.379579L83.5502 0.368009L83.5727 0.35655L83.5841 0.333521L83.6067 0.322063L83.618 0.310493L83.6406 0.299034L83.6519 0.287577L83.6747 0.276006L83.6858 0.264548L83.7086 0.252977L83.7312 0.24152L83.7425 0.230061L83.7651 0.218491L83.7877 0.207033L83.799 0.195462L83.8216 0.184004L83.8443 0.172546L83.8556 0.160976L83.8782 0.149517H83.9008L83.9121 0.137947L83.9347 0.126489L83.9575 0.115031H83.9801L83.9914 0.10346L84.014 0.092002H84.0366L84.0593 0.0804316L84.0818 0.0689735H84.0932L84.1158 0.0575153H84.1384L84.161 0.0459449H84.1837H84.2064L84.229 0.0344868H84.2403L84.2629 0.0229162H84.2856H84.3081H84.3307L84.3534 0.0114581H84.376H84.3986H84.4213H84.4439L84.4553 0H84.4778H84.5005H84.5231H84.5457H84.5684H84.5909H84.6136L84.6363 0.0114581H84.6589H84.6816H84.7041H84.7267L84.7494 0.0229162H84.772H84.7833H84.8059L84.8286 0.0344868H84.8512L84.8737 0.0459449H84.8965L84.9191 0.0575153H84.9417L84.953 0.0689735H84.9757L84.9983 0.0804316H85.0209L85.0435 0.092002L85.0661 0.10346H85.0775L85.1 0.115031L85.1226 0.126489H85.1454L85.1567 0.137947L85.1793 0.149517L85.2019 0.160976L85.2246 0.172546H85.2358L85.2585 0.184004L85.2811 0.195462L85.2924 0.207033L85.315 0.218491L85.3378 0.230061L85.3489 0.24152L85.3717 0.252977L85.3828 0.264548L85.4056 0.276006L85.4282 0.287577L85.4395 0.299034L85.4621 0.322063L85.4735 0.333521L85.496 0.345093L85.5074 0.35655L85.53 0.368009L85.5413 0.391037L85.5526 0.402607L85.5752 0.414066L85.5867 0.425524L85.6092 0.448553L85.6206 0.460123L85.6318 0.471581L85.6545 0.49461L85.6657 0.506067L85.6771 0.529096L85.6998 0.540554L85.711 0.563583L85.7223 0.575154L85.7337 0.59807L85.7563 0.60964L85.7676 0.632668L85.7788 0.644127L85.7902 0.667156L85.8015 0.678614H85.8128L87.804 3.64638V3.63492ZM68.1412 10.8819H68.1298L68.1185 10.8704L68.1073 10.8588H68.0959L68.0846 10.8474H68.0733L68.062 10.8358H68.0507V10.8243H68.0394H68.0281L68.0167 10.8129H68.0055H67.9942L67.9828 10.8013H67.9714H67.9601H67.9488L67.9375 10.7899H67.9262H67.9149H67.9035H67.8923H67.881H67.8696H67.8584H67.847H67.8357H67.8244H67.8131H67.8018H67.7904H67.7792H67.7679V10.8013H67.7565H67.7453H67.7338H67.7225L67.7114 10.8129H67.6999H67.6886V10.8243H67.6773H67.666L67.6547 10.8358H67.6434H67.6321V10.8474H67.6207H67.6094V10.8588H67.5982L67.5868 10.8704H67.5755V10.8819H67.5642V10.8933H67.5529L67.5416 10.9049L67.5303 10.9163H67.519V10.9279L65.822 12.6187L53.9428 24.5244L59.0451 22.5805L64.9508 20.3258L64.9961 20.3143L65.0412 20.303H65.0978L65.1544 20.3143L67.4171 20.8781L77.192 23.3052L85.5187 25.4102L103.767 30.092L117.728 33.7039L117.706 33.6925L112.388 26.595L112.343 26.572L99.1287 8.98385H99.1175V8.97239L99.1062 8.96082H99.0948V8.94936H99.0836V8.9378H99.0722V8.92634H99.0609H99.0497H99.0383V8.91488H99.027H99.0157H99.0044H98.9931V8.90331H98.9817H98.9705H98.9591V8.91488H98.9477H98.9366H98.9251H98.9138V8.92634H98.9025H98.8912L98.8799 8.9378H98.8686L96.8661 10.2837L96.8548 10.2952H96.8436L96.8322 10.3067L96.8096 10.3182L96.7983 10.3297L96.7869 10.3412H96.7644L96.7529 10.3528L96.7416 10.3642L96.719 10.3757H96.7077L96.6851 10.3872L96.6738 10.3987H96.6625L96.6398 10.4103H96.6286L96.6173 10.4217L96.5946 10.4332H96.5833L96.5607 10.4448H96.5494L96.5381 10.4562H96.5154L96.5041 10.4678H96.4815L96.4701 10.4792H96.4475H96.4362L96.4249 10.4907H96.4023L96.391 10.5023H96.3684H96.357L96.3345 10.5137H96.3231H96.3004H96.2891L96.2778 10.5253H96.2552H96.2438H96.2213L96.2099 10.5368H96.1873H96.176H96.1534H96.1421H96.1195H96.1082H96.0856L96.0742 10.5482H96.0628H96.0402H96.0289H96.0063H95.995H95.9724H95.961H95.9385L95.9271 10.5368H95.9045H95.8932H95.8705H95.8593H95.8478H95.8254H95.8139L95.7913 10.5253H95.78H95.7574H95.7461L95.7235 10.5137H95.7122H95.7008H95.6782L95.6669 10.5023H95.6443H95.633L95.6104 10.4907H95.5991H95.5876L95.565 10.4792H95.5537L95.5311 10.4678H95.5198L95.5084 10.4562H95.4859L95.4745 10.4448H95.4519L95.4406 10.4332H95.4294L95.4067 10.4217H95.3954L95.3841 10.4103L95.3613 10.3987H95.3502L95.3387 10.3872H95.3162L95.3048 10.3757L95.2935 10.3642H95.2709L95.2596 10.3528L95.2483 10.3412L95.2256 10.3297H95.2144L95.2031 10.3182L95.1805 10.3067L95.1691 10.2952H95.1578L95.1465 10.2837L95.1239 10.2722L95.1124 10.2606L95.1012 10.2492L95.0899 10.2377L95.0673 10.2262L95.0559 10.2147H95.0446L95.0334 10.2031L95.022 10.1917L95.0107 10.1802L94.9881 10.1686L94.9768 10.1572L94.9654 10.1456L94.9542 10.1342L94.9428 10.1227L94.9315 10.1111L94.9203 10.0881L94.8976 10.0766L94.8863 10.0652L90.0667 5.08426V5.07281H90.0554V5.06135H90.0441V5.04977H90.0328H90.0214V5.03832H90.0101H89.9989V5.02675H89.9875H89.9762H89.9649V5.0153H89.9536H89.9423H89.931H89.9197H87.4419L87.3402 5.00384L87.227 4.96923L87.1252 4.92329L87.0348 4.86578L86.9555 4.79668L86.8877 4.70469L84.7155 1.43788H84.7041V1.42631L84.6928 1.41485V1.40329H84.6816V1.39182H84.6702L84.6589 1.38036H84.6476V1.3688H84.6363H84.6249V1.35734H84.6136L84.6023 1.34577H84.5909H84.5796H84.5684H84.557V1.33431H84.5457H84.5344H84.5231H84.5118L84.5005 1.34577H84.4892H84.4778H84.4666H84.4553V1.35734H84.4439H84.4327L84.4213 1.3688H84.4099V1.38036H84.3986L84.3873 1.39182L84.376 1.40329L84.3646 1.41485L83.8895 1.95552L80.1448 6.11954L75.9249 10.7668L73.4586 13.4815L73.4471 13.4931L73.4358 13.5046L73.4247 13.5161L73.4132 13.5275L73.4019 13.539L73.3906 13.5506L73.3793 13.562L73.368 13.5736L73.3567 13.5851H73.334L73.3228 13.5966L73.3115 13.6082L73.3001 13.6195L73.2888 13.6311L73.2775 13.6426L73.2662 13.6541L73.2549 13.6656H73.2436L73.2208 13.6771L73.2097 13.6887L73.1984 13.7002H73.1869L73.1757 13.7115L73.1643 13.7231L73.1418 13.7346H73.1304L73.1191 13.7462L73.1078 13.7576H73.0965L73.0738 13.7691L73.0626 13.7807H73.0512L73.0399 13.7921H73.0173L73.006 13.8036L72.9947 13.8151H72.9834L72.9607 13.8266H72.9494L72.938 13.8382H72.9268L72.9041 13.8496H72.8928H72.8815L72.8589 13.8612H72.8476L72.8363 13.8727H72.8137H72.8024L72.791 13.8841H72.7798H72.7571L72.7458 13.8956H72.7345H72.7117H72.7005L72.6892 13.9071H72.6666H72.6552H72.6439H72.6213L72.61 13.9187H72.5987H72.5761H72.5648H72.5421H72.5308H72.5196H72.4968H72.4855H72.4742H72.4516H72.4403H72.4289H72.4064H72.395H72.3838H72.3611H72.3498H72.3385H72.3158L72.3046 13.9071H72.2933H72.2707H72.2592H72.2479L72.2253 13.8956H72.214H72.2027H72.1801L72.1687 13.8841H72.1575H72.1348L72.1236 13.8727H72.1122H72.0896L72.0783 13.8612H72.067H72.0444L72.0329 13.8496H72.0218L71.999 13.8382H71.9877L71.9764 13.8266H71.9651L71.9425 13.8151H71.9312L71.9198 13.8036H71.9086L71.8859 13.7921L71.8747 13.7807H71.8633L71.852 13.7691L71.8294 13.7576H71.8181L71.8066 13.7462L71.7955 13.7346H71.7727L71.7616 13.7231L71.7501 13.7115L71.7388 13.7002H71.7276L71.7049 13.6887L71.6936 13.6771L71.6823 13.6656L71.671 13.6541H71.6597L71.6484 13.6426L68.1524 10.8933L68.1412 10.8819Z" fill="white"/>
</svg>
