<svg width="140" height="38" viewBox="0 0 140 38" fill="none" xmlns="http://www.w3.org/2000/svg">
<g clip-path="url(#clip0_106_1714)">
<path fill-rule="evenodd" clip-rule="evenodd" d="M40.32 32.1728C40.32 32.1321 40.3531 32.0996 40.3935 32.0996C40.7326 32.0996 42.1474 32.0996 42.4875 32.0996C42.5278 32.0996 42.56 32.1321 42.56 32.1728C42.56 32.5143 42.56 33.9205 42.56 34.2619C42.56 34.3025 42.5278 34.3349 42.4875 34.3349C42.1474 34.3349 40.7326 34.3349 40.3935 34.3349C40.3531 34.3349 40.32 34.3025 40.32 34.2619C40.32 33.9205 40.32 32.5143 40.32 32.1728Z" fill="#D71635"/>
<path fill-rule="evenodd" clip-rule="evenodd" d="M43.6801 32.1728C43.6801 32.1321 43.7132 32.0996 43.7535 32.0996C44.0927 32.0996 45.5074 32.0996 45.8476 32.0996C45.8879 32.0996 45.9201 32.1321 45.9201 32.1728C45.9201 32.5143 45.9201 33.9205 45.9201 34.2619C45.9201 34.3025 45.8879 34.3349 45.8476 34.3349C45.5074 34.3349 44.0927 34.3349 43.7535 34.3349C43.7132 34.3349 43.6801 34.3025 43.6801 34.2619C43.6801 33.9205 43.6801 32.5143 43.6801 32.1728Z" fill="#D71635"/>
<path fill-rule="evenodd" clip-rule="evenodd" d="M43.6801 28.8198C43.6801 28.7791 43.7132 28.7466 43.7536 28.7466C44.0927 28.7466 45.5075 28.7466 45.8476 28.7466C45.8879 28.7466 45.9201 28.7791 45.9201 28.8198C45.9201 29.1612 45.9201 30.5675 45.9201 30.9089C45.9201 30.9495 45.8879 30.9819 45.8476 30.9819C45.5075 30.9819 44.0927 30.9819 43.7536 30.9819C43.7132 30.9819 43.6801 30.9495 43.6801 30.9089C43.6801 30.5675 43.6801 29.1612 43.6801 28.8198Z" fill="#D71635"/>
<path fill-rule="evenodd" clip-rule="evenodd" d="M40.3199 28.8198C40.3199 28.7791 40.3531 28.7466 40.3934 28.7466C40.7325 28.7466 42.1473 28.7466 42.4875 28.7466C42.5278 28.7466 42.5599 28.7791 42.5599 28.8198C42.5599 29.1612 42.5599 30.5675 42.5599 30.9089C42.5599 30.9495 42.5278 30.9819 42.4875 30.9819C42.1473 30.9819 40.7325 30.9819 40.3934 30.9819C40.3531 30.9819 40.3199 30.9495 40.3199 30.9089C40.3199 30.5675 40.3199 29.1612 40.3199 28.8198Z" fill="#D71635"/>
<path fill-rule="evenodd" clip-rule="evenodd" d="M66.1169 3.68338H68.2584H68.2698H68.2926H68.3153H68.3268H68.3495H68.3723H68.3951L68.4065 3.695H68.4293H68.452H68.4634H68.4862L68.5091 3.70672H68.5204H68.5432L68.566 3.71833H68.5774H68.6001L68.623 3.73006H68.6343H68.6571L68.6799 3.74167H68.6913L68.714 3.75328H68.7369L68.7482 3.76501H68.771L68.7824 3.77662L68.8052 3.78834H68.8279L68.8395 3.79996H68.8621L68.8736 3.81157L68.8964 3.82329L68.9078 3.8349H68.9305L68.9419 3.84663L68.9647 3.85824L68.976 3.86985H68.9988L69.0103 3.88158L69.033 3.89318L69.0444 3.90491L69.0673 3.91651L69.0786 3.92813H69.09H69.1014L69.1127 3.93985L69.1356 3.95146L69.1469 3.96319L69.1583 3.9748L69.1812 3.98641L69.1925 3.99814L69.2153 4.00975L69.2266 4.02147L69.2382 4.03309L69.2608 4.05642L69.2723 4.06803L69.2837 4.07976L69.2951 4.09137L69.3178 4.10297L69.3292 4.1147L69.3405 4.12631L69.3521 4.14964L69.3747 4.16126L74.239 9.20858H74.2504V9.2202H74.2618V9.23181H74.2731H74.2846V9.24353H74.2959H74.3074V9.25515H74.3187H74.33H74.3416H74.3529V9.26687H74.3643H74.3757H74.387H74.3985V9.25515H74.4099H74.4213H74.4326H74.4441V9.24353H74.4555H74.4668V9.23181H74.4782L76.4944 7.8681L76.506 7.85638L76.5287 7.84476L76.5401 7.83304L76.5629 7.82143L76.5743 7.80982L76.597 7.79809H76.6084L76.6312 7.78648L76.6426 7.77476L76.6653 7.76314H76.6768L76.6996 7.75153L76.7109 7.73981L76.7338 7.72819H76.7451L76.7679 7.71647H76.7793L76.8021 7.70486L76.8135 7.69326H76.8363L76.8477 7.68152H76.8705L76.8818 7.66992H76.9047L76.9274 7.6582H76.9388L76.9616 7.64658H76.9729H76.9957L77.0071 7.63497H77.0299H77.0527L77.0641 7.62325H77.0869H77.0983L77.1211 7.61163H77.1438H77.1552H77.178H77.1894L77.2122 7.59991H77.235H77.2464H77.2692H77.2806H77.3034H77.3261H77.3375H77.3603H77.3716H77.3945H77.4173H77.4286H77.4515H77.4628H77.4855H77.5084H77.5197L77.5425 7.61163H77.5539H77.5767H77.5995H77.611L77.6337 7.62325H77.6451H77.6679L77.6793 7.63497H77.702H77.7134L77.7362 7.64658H77.759H77.7703L77.7932 7.6582H77.8045L77.8273 7.66992H77.8388L77.8615 7.68152H77.8729L77.8958 7.69326H77.9071L77.9299 7.70486H77.9412L77.964 7.71647L77.9754 7.72819H77.9981L78.0097 7.73981L78.0323 7.75153H78.0438L78.0666 7.76314L78.078 7.77476H78.0893L78.1122 7.78648L78.1236 7.79809L78.1462 7.80982L78.1577 7.82143H78.1805L78.1919 7.83304L78.2032 7.84476L78.2261 7.85638L78.2375 7.8681L78.2488 7.87971L78.2716 7.89131L78.283 7.90305L78.2945 7.91465L78.3171 7.92638L78.3285 7.93799L78.34 7.9496L78.3627 7.96132L78.3741 7.97294L78.3856 7.98466L78.3969 7.99627L78.4197 8.00788L78.431 8.01961L78.4426 8.03122L78.4539 8.04295L78.4653 8.05456L78.488 8.0779L78.4995 8.08951L78.5108 8.10123L78.5223 8.11283L78.5336 8.12444L78.5449 8.14778L78.5678 8.1595L78.5792 8.17112L78.5906 8.18273L78.6019 8.20607L78.6134 8.21779L78.6248 8.2294L94.5958 29.7006L98.4348 34.8527L98.4917 34.9577L98.5258 35.0626L98.56 35.1674V35.2724L98.5487 35.389L98.5258 35.4939L98.4803 35.5987L98.4119 35.6919L98.3436 35.7735L98.2524 35.8319L98.1613 35.8901L98.0588 35.9251L97.9563 35.9368H97.8423L97.7398 35.9135L86.3596 32.9061L66.1509 27.5442L56.9465 25.0496L46.2271 22.1239V22.1006L43.2425 21.3079L36.3619 23.814L29.3561 26.3901L18.7164 30.3417H18.6822L18.648 30.3533H18.6138L18.5798 30.3417L18.5456 30.3299L18.5228 30.3068L18.4886 30.2834L18.4658 30.2601L18.4544 30.2251L18.443 30.2018L18.4316 30.1669V30.1319V27.9871H18.443H15.3217V31.5074V31.6006V31.6356L15.3103 31.6588L15.299 31.6938L15.2761 31.7171L15.2534 31.7405L15.2305 31.7638L15.1964 31.7754L0.273442 38H0.136722L0.0342637 37.9067L0 37.93L0.0114584 37.7901L0.148179 37.6735L14.9344 31.4606V30.4582L14.923 27.7773V27.7423L14.9344 27.719L14.9457 27.684L14.9573 27.6608L14.9799 27.6374L15.0027 27.614L15.0369 27.5907L15.0597 27.5791H15.0939L15.1281 27.5674H18.6367H18.6822L18.7164 27.5791L18.7506 27.5907L18.7734 27.614L18.7961 27.6374L18.8189 27.6723L18.8418 27.7073L18.8531 27.7423V27.7773V29.8171L30.6433 25.411L30.6548 25.376L31.2358 25.1545L31.3268 25.0496L43.4703 12.2742L45.1334 10.514L45.145 10.5024L45.1563 10.4908L45.1676 10.4791L45.1791 10.4675L45.1904 10.4557H45.2019L45.2133 10.4441L45.2246 10.4325L45.236 10.4208L45.2474 10.4092L45.2589 10.3975H45.2702L45.2816 10.3858L45.293 10.3742L45.3043 10.3625H45.3158L45.3272 10.3509L45.3385 10.3392L45.3499 10.3276H45.3613L45.3728 10.3159L45.3841 10.3042H45.3955L45.4069 10.2926H45.4298L45.4411 10.2809L45.4524 10.2693H45.4638L45.4753 10.2577H45.4867L45.498 10.2459H45.5094L45.5321 10.2343H45.5437L45.555 10.2226H45.5663L45.5778 10.211H45.5892L45.6006 10.1994H45.6233L45.6347 10.1877H45.646H45.6576L45.6689 10.1761H45.6802L45.7031 10.1643H45.7145H45.7259H45.7372L45.7486 10.1527H45.7715H45.7828L45.7941 10.1411H45.8056H45.817H45.8398H45.8511L45.8625 10.1294H45.874H45.8967H45.9081H45.9196H45.9309H45.9424L45.965 10.1178H45.9764H45.9879H45.9993H46.022H46.0335H46.0448H46.0563H46.0789H46.0905H46.1018H46.1132H46.1359H46.1474L46.1587 10.1294H46.1702H46.1815H46.2044H46.2157H46.2271H46.2385L46.2613 10.1411H46.2726H46.2841H46.2954L46.3067 10.1527H46.3296H46.341H46.3524L46.3637 10.1643H46.3866H46.398L46.4093 10.1761H46.4208H46.4322L46.4549 10.1877H46.4663L46.4776 10.1994H46.4891H46.5005L46.5232 10.211H46.5347L46.5461 10.2226H46.5574L46.5689 10.2343H46.5802L46.6031 10.2459L46.6144 10.2577H46.6258L46.6371 10.2693H46.6486L46.66 10.2809H46.6713L46.6941 10.2926L46.7055 10.3042H46.717L46.7283 10.3159L46.7397 10.3276L46.7512 10.3392H46.7625L46.7739 10.3509L46.7852 10.3625H46.7967L46.808 10.3742L50.3964 13.0669H50.4077L50.4193 13.0785H50.4306L50.442 13.0901L50.4533 13.1017H50.4647H50.4762V13.1135H50.4875H50.499L50.5103 13.1251H50.5216H50.5332L50.5445 13.1367H50.5559H50.5673H50.5786H50.5901H50.6015H50.6129H50.6242V13.1484H50.6355H50.6471H50.6584L50.6698 13.1367H50.6812H50.6925H50.704H50.7154H50.7268H50.7381L50.7495 13.1251H50.761H50.7723L50.7838 13.1135H50.7951H50.8064V13.1017H50.8179H50.8293L50.8407 13.0901L50.852 13.0785H50.8635L50.8749 13.0669H50.8862V13.0552H50.8977L50.909 13.0435L50.9204 13.0319L50.9319 13.0201L50.9432 13.0085L50.9546 12.9969L53.3583 10.1761L57.4933 5.36197L61.1956 1.0723L61.674 0.52454L61.6969 0.512816L61.7082 0.489479L61.7197 0.477869L61.7424 0.466258L61.7539 0.442922L61.7652 0.431197L61.788 0.419586L61.7994 0.396251L61.8221 0.384639L61.8336 0.372915L61.8563 0.361304L61.8678 0.337969L61.8905 0.326357L61.902 0.314633L61.9247 0.303022L61.9361 0.291411L61.9588 0.279687L61.9702 0.268075L61.993 0.25635L62.0159 0.24474L62.0272 0.233129L62.05 0.221404L62.0728 0.209794L62.0842 0.198068L62.1069 0.186457L62.1298 0.174847L62.1411 0.163122L62.1639 0.15151H62.1867L62.1981 0.139786L62.2208 0.128175L62.2437 0.116564H62.2665L62.2778 0.10484L62.3006 0.0932288H62.3234L62.3463 0.0815041L62.3689 0.0698931H62.3804L62.4031 0.0582822H62.4259L62.4487 0.0465575H62.4715H62.4943L62.5171 0.0349466H62.5285L62.5512 0.0232218H62.5741H62.5968H62.6195L62.6424 0.0116109H62.6651H62.688H62.7107H62.7334L62.745 0H62.7676H62.7904H62.8132H62.836H62.8589H62.8815H62.9044L62.9272 0.0116109H62.9499H62.9728H62.9954H63.0183L63.0411 0.0232218H63.0638H63.0753H63.098L63.1208 0.0349466H63.1436L63.1663 0.0465575H63.1892L63.2119 0.0582822H63.2347L63.2461 0.0698931H63.2689L63.2916 0.0815041H63.3145L63.3372 0.0932288L63.36 0.10484H63.3715L63.3941 0.116564L63.417 0.128175H63.4398L63.4511 0.139786L63.4739 0.15151L63.4967 0.163122L63.5196 0.174847H63.5309L63.5537 0.186457L63.5765 0.198068L63.5879 0.209794L63.6106 0.221404L63.6335 0.233129L63.6448 0.24474L63.6676 0.25635L63.6789 0.268075L63.7018 0.279687L63.7245 0.291411L63.736 0.303022L63.7587 0.326357L63.7702 0.337969L63.7929 0.349693L63.8043 0.361304L63.8271 0.372915L63.8384 0.396251L63.8499 0.407976L63.8726 0.419586L63.8841 0.431197L63.9068 0.454533L63.9183 0.466258L63.9296 0.477869L63.9523 0.501204L63.9638 0.512816L63.9752 0.536151L63.998 0.547762L64.0093 0.571097L64.0207 0.582822L64.0322 0.606044L64.0549 0.617768L64.0664 0.641105L64.0777 0.652715L64.0891 0.676051L64.1005 0.687661H64.1119L66.1169 3.695V3.68338ZM46.3183 11.027H46.3067L46.2954 11.0153L46.2841 11.0036H46.2726L46.2613 10.992H46.2498L46.2385 10.9803H46.2271V10.9687H46.2157H46.2044L46.1928 10.9571H46.1815H46.1702L46.1587 10.9453H46.1474H46.1359H46.1245L46.1132 10.9337H46.1018H46.0905H46.0789H46.0676H46.0563H46.0448H46.0335H46.022H46.0106H45.9993H45.9879H45.9764H45.965H45.9537H45.9424V10.9453H45.9309H45.9196H45.9081H45.8967L45.8854 10.9571H45.874H45.8625V10.9687H45.8511H45.8398L45.8284 10.9803H45.817H45.8056V10.992H45.7941H45.7828V11.0036H45.7715L45.7601 11.0153H45.7486V11.027H45.7372V11.0386H45.7259L45.7145 11.0503L45.7031 11.0619H45.6917V11.0736L43.983 12.787L32.0218 24.8514L37.1594 22.8816L43.1058 20.5969L43.1514 20.5853L43.1969 20.5736H43.2538L43.3108 20.5853L45.5892 21.1564L55.4315 23.6159L63.8157 25.749L82.1903 30.4932L96.2475 34.1534L96.2247 34.1417L90.8706 26.9496L90.8252 26.9264L77.5197 9.10364H77.5084V9.09202L77.4971 9.0803H77.4855V9.06869H77.4742V9.05696H77.4628V9.04535H77.4515H77.44H77.4286V9.03374H77.4173H77.4058H77.3945H77.3832V9.02202H77.3716H77.3603H77.3489V9.03374H77.3375H77.3261H77.3147H77.3034V9.04535H77.2919H77.2806L77.2692 9.05696H77.2577L75.2414 10.4208L75.2301 10.4325H75.2188L75.2072 10.4441L75.1845 10.4557L75.173 10.4675L75.1618 10.4791H75.1389L75.1275 10.4908L75.1162 10.5024L75.0933 10.514H75.082L75.0592 10.5257L75.0478 10.5374H75.0364L75.0136 10.5491H75.0023L74.9908 10.5607L74.9681 10.5723H74.9567L74.9339 10.584H74.9225L74.9111 10.5956H74.8884L74.8769 10.6074H74.8542L74.8427 10.619H74.82H74.8086L74.7972 10.6306H74.7745L74.763 10.6423H74.7403H74.7288L74.7061 10.6539H74.6946H74.6719H74.6604L74.6491 10.6656H74.6264H74.6148H74.5922L74.5807 10.6773H74.558H74.5465H74.5238H74.5124H74.4896H74.4782H74.4555L74.4441 10.6889H74.4326H74.4099H74.3985H74.3757H74.3643H74.3416H74.33H74.3074L74.2959 10.6773H74.2731H74.2618H74.239H74.2277H74.2161H74.1935H74.182L74.1592 10.6656H74.1478H74.1251H74.1138L74.0909 10.6539H74.0796H74.0681H74.0453L74.0339 10.6423H74.0112H73.9997L73.977 10.6306H73.9656H73.9542L73.9314 10.619H73.92L73.8973 10.6074H73.8858L73.8744 10.5956H73.8517L73.8403 10.584H73.8174L73.8061 10.5723H73.7948L73.7719 10.5607H73.7605L73.7492 10.5491L73.7264 10.5374H73.715L73.7035 10.5257H73.6809L73.6693 10.514L73.658 10.5024H73.6353L73.6239 10.4908L73.6124 10.4791L73.5896 10.4675H73.5783L73.567 10.4557L73.5441 10.4441L73.5327 10.4325H73.5213L73.51 10.4208L73.4871 10.4092L73.4757 10.3975L73.4644 10.3858L73.4531 10.3742L73.4302 10.3625L73.4188 10.3509H73.4074L73.3961 10.3392L73.3846 10.3276L73.3732 10.3159L73.3505 10.3042L73.3391 10.2926L73.3276 10.2809L73.3163 10.2693L73.3049 10.2577L73.2935 10.2459L73.2822 10.2226L73.2593 10.211L73.2479 10.1994L68.3951 5.15205V5.14045H68.3837V5.12884H68.3723V5.11711H68.361H68.3495V5.1055H68.3381H68.3268V5.09378H68.3153H68.304H68.2926V5.08216H68.2812H68.2698H68.2584H68.2471H65.7523L65.6498 5.07055L65.5359 5.03549L65.4333 4.98893L65.3421 4.93066L65.2624 4.86065L65.1941 4.76741L63.0069 1.45705H62.9954V1.44533L62.9841 1.43372V1.42199H62.9728V1.41038H62.9614L62.9499 1.39877H62.9385V1.38704H62.9272H62.9158V1.37543H62.9044L62.893 1.36371H62.8815H62.8702H62.8589H62.8473V1.35211H62.836H62.8246H62.8132H62.8019L62.7904 1.36371H62.7791H62.7676H62.7563H62.745V1.37543H62.7334H62.7221L62.7107 1.38704H62.6993V1.39877H62.688L62.6765 1.41038L62.6651 1.42199L62.6537 1.43372L62.1753 1.9816L58.4046 6.20113L54.1556 10.9104L51.6723 13.6612L51.6608 13.673L51.6495 13.6846L51.6382 13.6963L51.6266 13.7079L51.6153 13.7196L51.6039 13.7313L51.5926 13.7429L51.5812 13.7545L51.5697 13.7662H51.5469L51.5356 13.7778L51.5243 13.7895L51.5127 13.8012L51.5014 13.8129L51.49 13.8245L51.4786 13.8361L51.4672 13.8479H51.4558L51.433 13.8595L51.4217 13.8711L51.4104 13.8827H51.3988L51.3875 13.8944L51.3761 13.9061L51.3533 13.9177H51.3419L51.3305 13.9295L51.3191 13.9411H51.3078L51.2849 13.9527L51.2736 13.9644H51.2622L51.2508 13.976H51.228L51.2166 13.9877L51.2052 13.9993H51.1939L51.171 14.0109H51.1597L51.1482 14.0227H51.1368L51.1141 14.0343H51.1027H51.0913L51.0685 14.046H51.0571L51.0458 14.0577H51.0229H51.0116L51.0001 14.0693H50.9888H50.9659L50.9546 14.081H50.9432H50.9204H50.909L50.8977 14.0925H50.8749H50.8635H50.852H50.8293L50.8179 14.1043H50.8064H50.7838H50.7723H50.7495H50.7381H50.7268H50.704H50.6925H50.6812H50.6584H50.6471H50.6355H50.6129H50.6015H50.5901H50.5673H50.5559H50.5445H50.5216L50.5103 14.0925H50.499H50.4762H50.4647H50.4533L50.4306 14.081H50.4193H50.4077H50.3851L50.3736 14.0693H50.3623H50.3394L50.3281 14.0577H50.3167H50.2938L50.2825 14.046H50.2712H50.2484L50.2369 14.0343H50.2255L50.2028 14.0227H50.1913L50.1799 14.0109H50.1686L50.1458 13.9993H50.1344L50.1229 13.9877H50.1116L50.0889 13.976L50.0774 13.9644H50.066L50.0547 13.9527L50.0319 13.9411H50.0205L50.009 13.9295L49.9977 13.9177H49.9748L49.9635 13.9061L49.9521 13.8944L49.9408 13.8827H49.9294L49.9066 13.8711L49.8951 13.8595L49.8838 13.8479L49.8725 13.8361H49.8609L49.8496 13.8245L46.3296 11.0386L46.3183 11.027Z" fill="#D71635"/>
<path d="M109.945 25.3922H111.457L112.7 22.2237H117.824L119.067 25.3922H120.63L116.161 13.6569H114.43L109.945 25.3922ZM113.137 20.8993L115.254 15.2496L117.387 20.8993H113.137ZM122.541 21.5531H121.097C121.13 22.3243 121.332 23.0116 121.701 23.6151C122.071 24.2187 122.609 24.6713 123.297 25.0066C123.969 25.3419 124.776 25.4928 125.7 25.4928C126.506 25.4928 127.229 25.3587 127.867 25.0569C128.505 24.7719 128.993 24.3695 129.345 23.8331C129.698 23.3134 129.883 22.7098 129.883 22.0393C129.883 21.0166 129.53 20.279 128.825 19.8096C128.119 19.3401 127.178 19.0048 126.002 18.8037C125.263 18.6863 124.675 18.569 124.255 18.4348C123.818 18.3007 123.482 18.1163 123.213 17.8648C122.945 17.6134 122.81 17.2613 122.81 16.8087C122.81 16.2051 123.029 15.719 123.499 15.3837C123.953 15.0484 124.574 14.864 125.364 14.864C126.137 14.864 126.792 15.0819 127.329 15.4843C127.85 15.9034 128.153 16.4566 128.253 17.1272H129.698C129.648 16.4231 129.446 15.8028 129.077 15.2663C128.707 14.7298 128.203 14.294 127.565 13.9922C126.926 13.6904 126.187 13.5396 125.364 13.5396C124.574 13.5396 123.869 13.6904 123.264 13.9587C122.659 14.2437 122.189 14.646 121.853 15.149C121.517 15.6519 121.349 16.2387 121.349 16.8925C121.349 17.9319 121.685 18.6696 122.39 19.1222C123.079 19.5916 124.02 19.9101 125.196 20.1113C125.935 20.2454 126.506 20.3628 126.943 20.4969C127.38 20.631 127.733 20.8154 128.001 21.0837C128.27 21.3519 128.421 21.7207 128.421 22.1734C128.421 22.8104 128.169 23.2966 127.665 23.6487C127.161 24.0007 126.523 24.1684 125.717 24.1684C124.809 24.1684 124.07 23.9337 123.499 23.4643C122.911 22.9948 122.592 22.3578 122.541 21.5531ZM131.739 13.6569V25.3922H133.201V20.2622H138.039V18.921H133.201V14.9981H139.047V13.6569H131.739Z" fill="#D71635"/>
</g>
<defs>
<clipPath id="clip0_106_1714">
<rect width="140" height="38" fill="white"/>
</clipPath>
</defs>
</svg>
