<svg width="10" height="14" viewBox="0 0 10 14" fill="none" xmlns="http://www.w3.org/2000/svg">
<path d="M9 13.75C8.8376 13.7507 8.67948 13.698 8.55 13.6L0.55 7.60001C0.456853 7.53015 0.381251 7.43956 0.32918 7.33542C0.277109 7.23128 0.25 7.11644 0.25 7.00001C0.25 6.88357 0.277109 6.76874 0.32918 6.6646C0.381251 6.56046 0.456853 6.46987 0.55 6.40001L8.55 0.400007C8.66198 0.315675 8.79535 0.264415 8.93499 0.252042C9.07463 0.23967 9.21494 0.266679 9.34 0.330007C9.46288 0.393756 9.56601 0.489855 9.63827 0.607932C9.71053 0.726009 9.74916 0.861579 9.75 1.00001V13C9.74916 13.1384 9.71053 13.274 9.63827 13.3921C9.56601 13.5102 9.46288 13.6063 9.34 13.67C9.23352 13.7202 9.11769 13.7475 9 13.75ZM2.25 7.00001L8.25 11.5V2.50001L2.25 7.00001Z" fill="#472B01"/>
</svg>
