<svg width="22" height="22" viewBox="0 0 22 22" fill="none" xmlns="http://www.w3.org/2000/svg">
<g clip-path="url(#clip0_161_2562)">
<path d="M18.7428 18.7477H15.4856V13.6424C15.4856 12.4251 15.4611 10.8582 13.7867 10.8582C12.089 10.8582 11.8299 12.1831 11.8299 13.5532V18.7477H8.57144V8.25H11.7003V9.68H11.7431C12.1807 8.85622 13.244 7.98478 14.8329 7.98478C18.1329 7.98478 18.744 10.1579 18.744 12.9849V18.7477H18.7428ZM4.89256 6.81389C4.6439 6.81421 4.39763 6.76545 4.16786 6.67041C3.93808 6.57536 3.72933 6.4359 3.55356 6.26002C3.37779 6.08414 3.23846 5.87529 3.14357 5.64546C3.04867 5.41563 3.00007 5.16932 3.00056 4.92067C3.0008 4.54646 3.112 4.18074 3.32009 3.86973C3.52819 3.55873 3.82384 3.31642 4.16965 3.17344C4.51546 3.03046 4.8959 2.99324 5.26286 3.06648C5.62983 3.13972 5.96684 3.32014 6.23126 3.58491C6.49569 3.84968 6.67567 4.18692 6.74844 4.55398C6.82121 4.92104 6.78349 5.30143 6.64007 5.64706C6.49664 5.99268 6.25395 6.28801 5.94268 6.49571C5.63141 6.7034 5.26554 6.81413 4.89133 6.81389H4.89256ZM6.52544 18.7477H3.25844V8.25H6.52667V18.7477H6.52544ZM20.3744 0H1.62433C0.724778 0 0 0.708889 0 1.58522V20.4148C0 21.2911 0.726 22 1.62311 22H20.3696C21.2667 22 22 21.2911 22 20.4148V1.58522C22 0.708889 21.2667 0 20.3696 0H20.3732H20.3744Z" fill=""/>
</g>
<defs>
<clipPath id="clip0_161_2562">
<rect width="22" height="22" fill="white"/>
</clipPath>
</defs>
</svg>
