<svg width="384" height="384" viewBox="0 0 384 384" fill="none" xmlns="http://www.w3.org/2000/svg">
<path d="M331 191.717C331 167.229 324.577 143.173 312.377 121.967L192 191.717H331Z" fill="#10542B"/>
<path d="M309.434 267.269C323.891 244.712 331.55 218.471 331.495 191.68L191.977 191.987L309.434 267.269Z" fill="#FF0000"/>
<path d="M256.35 315.815C278.084 304.52 296.462 287.702 309.637 267.052L192 192L256.35 315.815Z" fill="#10542B"/>
<path d="M186.53 331.432C211.005 332.392 235.302 326.893 256.979 315.487L192 192L186.53 331.432Z" fill="#FF0000"/>
<path d="M118.794 310.794C139.647 323.645 163.515 330.78 187.999 331.482L192 192L118.794 310.794Z" fill="#10542B"/>
<path d="M69.7048 259.194C81.4998 280.661 98.7378 298.645 119.686 311.339L192 192L69.7048 259.194Z" fill="#FF0000"/>
<path d="M52.4894 189.19C51.9962 213.679 57.958 237.867 69.7755 259.322L192 192L52.4894 189.19Z" fill="#10542B"/>
<path d="M72.4519 120.032C59.8189 141.017 52.9322 164.958 52.4843 189.448L192 192L72.4519 120.032Z" fill="#FF0000"/>
<path d="M123.857 70.2307C102.482 82.1922 84.6326 99.5695 72.1021 120.616L192 192L123.857 70.2307Z" fill="#10542B"/>
<path d="M193.321 52.4671C168.828 52.2352 144.705 58.4547 123.377 70.5005L192 192L193.321 52.4671Z" fill="#FF0000"/>
<path d="M262.892 71.8108C241.794 59.3666 217.793 52.6951 193.3 52.4669L192 192L262.892 71.8108Z" fill="#10542B"/>
<path d="M313.475 123.335C301.422 102.011 283.968 84.2365 262.868 71.7965L192 192L313.475 123.335Z" fill="#FF0000"/>
<path d="M330 191.217C330 266.261 268.282 327.217 192 327.217C115.718 327.217 53.9999 266.261 53.9999 191.217C53.9999 116.172 115.718 55.2167 192 55.2167C268.282 55.2167 330 116.172 330 191.217Z" stroke="url(#paint0_linear_119_6)" stroke-width="10"/>
<defs>
<linearGradient id="paint0_linear_119_6" x1="192" y1="50.2167" x2="192" y2="332.217" gradientUnits="userSpaceOnUse">
<stop/>
<stop offset="1" stop-color="#3F3737"/>
</linearGradient>
</defs>
</svg>
