<svg width="26" height="22" viewBox="0 0 26 22" fill="none" xmlns="http://www.w3.org/2000/svg">
<g clip-path="url(#clip0_161_2560)">
<path d="M25.4059 3.43475C26 5.885 26 11 26 11C26 11 26 16.115 25.4059 18.5653C25.0757 19.9196 24.1098 20.9853 22.8865 21.3455C20.6648 22 13 22 13 22C13 22 5.3391 22 3.1135 21.3455C1.885 20.9797 0.9204 19.9155 0.5941 18.5653C5.96046e-08 16.115 0 11 0 11C0 11 5.96046e-08 5.885 0.5941 3.43475C0.9243 2.08038 1.8902 1.01475 3.1135 0.6545C5.3391 -2.38419e-07 13 0 13 0C13 0 20.6648 -2.38419e-07 22.8865 0.6545C24.115 1.02025 25.0796 2.0845 25.4059 3.43475ZM10.4 15.8125L18.2 11L10.4 6.1875V15.8125Z" fill=""/>
</g>
<defs>
<clipPath id="clip0_161_2560">
<rect width="26" height="22" fill="white"/>
</clipPath>
</defs>
</svg>
