<svg width="68" height="68" viewBox="0 0 68 68" fill="none" xmlns="http://www.w3.org/2000/svg">
<circle cx="33.625" cy="33.75" r="33" fill="#133181"/>
<path d="M20.2222 17.2348C19.946 17.2348 19.7222 17.4587 19.7222 17.7348V50.8786C19.7222 51.1548 19.946 51.3786 20.2222 51.3786H46.3555C46.6316 51.3786 46.8555 51.1548 46.8555 50.8786V17.7348C46.8555 17.4587 46.6316 17.2348 46.3555 17.2348H40.0783C40.0454 17.2348 40.0164 17.2132 40.006 17.1819C39.6753 16.1811 38.7241 15.4453 37.5894 15.4453H28.9883C27.8536 15.4453 26.9024 16.1811 26.5717 17.1819C26.5613 17.2132 26.5323 17.2348 26.4993 17.2348H20.2222ZM28.9883 16.8826H37.5967C38.1959 16.8826 38.6855 17.3642 38.6855 17.9535C38.6855 18.5428 38.1959 19.0243 37.5967 19.0243H28.9883C28.3891 19.0243 27.8994 18.5428 27.8994 17.9535C27.8994 17.3642 28.3817 16.8826 28.9883 16.8826ZM21.1837 18.7471C21.1837 18.7057 21.2173 18.6721 21.2587 18.6721H26.4992C26.5322 18.6721 26.5613 18.6938 26.5716 18.7252C26.9023 19.7327 27.8535 20.4616 28.9883 20.4616H37.5967C38.7314 20.4616 39.6826 19.7259 40.0133 18.7251C40.0237 18.6937 40.0527 18.6721 40.0856 18.6721H45.3263C45.3677 18.6721 45.4013 18.7057 45.4013 18.7471V49.8663C45.4013 49.9077 45.3677 49.9413 45.3263 49.9413H21.2587C21.2173 49.9413 21.1837 49.9077 21.1837 49.8663V18.7471Z" fill="white" stroke="#133181" stroke-width="0.3"/>
<path d="M24.4841 26.2694C24.629 26.3905 24.8101 26.4451 24.9984 26.4451C25.1867 26.4451 25.3678 26.3845 25.5126 26.2694L27.5768 24.543C27.8593 24.3068 27.8593 23.9251 27.5768 23.6889C27.2944 23.4527 26.8381 23.4527 26.5556 23.6889L25.0537 24.945C25.0259 24.9683 24.9854 24.9683 24.9575 24.945L24.6218 24.6642C24.3393 24.4279 23.883 24.4279 23.6005 24.6642C23.3181 24.9004 23.3181 25.282 23.6005 25.5183L24.4841 26.2694Z" fill="white" stroke="#133181" stroke-width="0.3"/>
<path d="M30.7081 25.7128H42.4694C42.8651 25.7128 43.1888 25.3828 43.1888 24.9794C43.1888 24.5761 42.8651 24.2461 42.4694 24.2461H30.7081C30.3125 24.2461 29.9888 24.5761 29.9888 24.9794C29.9888 25.3828 30.3053 25.7128 30.7081 25.7128Z" fill="white" stroke="#133181" stroke-width="0.3"/>
<path d="M24.4841 33.5584C24.629 33.7098 24.8101 33.778 24.9984 33.778C25.1867 33.778 25.3678 33.7023 25.5126 33.5584L27.5768 31.4004C27.8593 31.1051 27.8593 30.6281 27.5768 30.3328C27.2944 30.0375 26.8381 30.0375 26.5556 30.3328L25.0598 31.8965C25.0303 31.9274 24.981 31.9274 24.9514 31.8965L24.6218 31.5519C24.3393 31.2566 23.883 31.2566 23.6005 31.5519C23.3181 31.8472 23.3181 32.3242 23.6005 32.6195L24.4841 33.5584Z" fill="white" stroke="#133181" stroke-width="0.3"/>
<path d="M30.7081 32.3124H42.4694C42.8651 32.3124 43.1888 31.9824 43.1888 31.579C43.1888 31.1757 42.8651 30.8457 42.4694 30.8457H30.7081C30.3125 30.8457 29.9888 31.1757 29.9888 31.579C29.9888 31.9824 30.3053 32.3124 30.7081 32.3124Z" fill="white" stroke="#133181" stroke-width="0.3"/>
<path d="M24.4841 40.16C24.629 40.3114 24.8101 40.3796 24.9984 40.3796C25.1867 40.3796 25.3678 40.3038 25.5126 40.16L27.5768 38.002C27.8593 37.7067 27.8593 37.2297 27.5768 36.9344C27.2944 36.6391 26.8381 36.6391 26.5556 36.9344L25.0598 38.4981C25.0303 38.529 24.981 38.529 24.9514 38.4981L24.6218 38.1534C24.3393 37.8581 23.883 37.8581 23.6005 38.1534C23.3181 38.4487 23.3181 38.9258 23.6005 39.2211L24.4841 40.16Z" fill="white" stroke="#133181" stroke-width="0.3"/>
<path d="M30.7081 38.912H42.4694C42.8651 38.912 43.1888 38.582 43.1888 38.1786C43.1888 37.7753 42.8651 37.4453 42.4694 37.4453H30.7081C30.3125 37.4453 29.9888 37.7753 29.9888 38.1786C29.9888 38.582 30.3053 38.912 30.7081 38.912Z" fill="white" stroke="#133181" stroke-width="0.3"/>
<path d="M24.4841 46.7596C24.6218 46.9034 24.8028 46.9792 24.9984 46.9792C25.1939 46.9792 25.375 46.8959 25.5126 46.7596L27.5768 44.6016C27.8593 44.3063 27.8593 43.8293 27.5768 43.534C27.2944 43.2387 26.8381 43.2387 26.5556 43.534L25.0598 45.0977C25.0303 45.1286 24.981 45.1286 24.9514 45.0977L24.6218 44.753C24.3393 44.4577 23.883 44.4577 23.6005 44.753C23.3181 45.0483 23.3181 45.5254 23.6005 45.8207L24.4841 46.7596Z" fill="white" stroke="#133181" stroke-width="0.3"/>
<path d="M30.7081 46.246H42.4694C42.8651 46.246 43.1888 45.916 43.1888 45.5126C43.1888 45.1093 42.8651 44.7793 42.4694 44.7793H30.7081C30.3125 44.7793 29.9888 45.1093 29.9888 45.5126C29.9888 45.916 30.3053 46.246 30.7081 46.246Z" fill="white" stroke="#133181" stroke-width="0.3"/>
<path d="M51.6223 21.3125C50.2028 21.3125 49.0557 22.4739 49.0557 23.9022V46.9716C49.0557 47.0751 49.0819 47.1719 49.1218 47.2622C49.1254 47.2704 49.1259 47.2786 49.1287 47.2871V47.2871C49.1308 47.2933 49.136 47.2992 49.139 47.3051L50.9842 50.9824C51.1061 51.2277 51.3571 51.3792 51.6223 51.3792C51.8876 51.3792 52.1385 51.2277 52.2604 50.9824L54.1041 47.3082C54.1081 47.3003 54.1087 47.2923 54.1115 47.2839V47.2839C54.1135 47.2775 54.1187 47.2715 54.1215 47.2654C54.1622 47.1742 54.189 47.0763 54.189 46.9716V23.9022C54.189 22.4739 53.0347 21.3125 51.6223 21.3125ZM50.5574 46.243C50.516 46.243 50.4824 46.2094 50.4824 46.168V28.4497C50.4824 28.4083 50.516 28.3747 50.5574 28.3747H52.6801C52.7215 28.3747 52.7551 28.4083 52.7551 28.4497V46.168C52.7551 46.2094 52.7215 46.243 52.6801 46.243H50.5574ZM51.6223 22.7552C52.2461 22.7552 52.7551 23.2674 52.7551 23.9022V26.857C52.7551 26.8984 52.7215 26.932 52.6801 26.932H50.5574C50.516 26.932 50.4824 26.8984 50.4824 26.857V23.9022C50.4824 23.2674 50.9914 22.7552 51.6223 22.7552ZM51.6893 48.9237C51.6616 48.9787 51.5831 48.9787 51.5554 48.9237L50.989 47.8018C50.9638 47.7519 51.0001 47.693 51.0559 47.693H52.1887C52.2446 47.693 52.2809 47.7519 52.2557 47.8018L51.6893 48.9237Z" fill="white" stroke="#133181" stroke-width="0.3"/>
</svg>
