<svg width="67" height="67" viewBox="0 0 67 67" fill="none" xmlns="http://www.w3.org/2000/svg">
<circle cx="33.1446" cy="33.0225" r="32.2667" fill="#133181"/>
<path d="M26.1577 19.3822C25.5611 19.3822 25.5611 18.4894 26.1577 18.4894H29.7376C30.3342 18.4894 30.3342 19.3822 29.7376 19.3822H26.1577ZM32.5309 40.2905H35.0438C35.0559 40.2905 35.068 40.2883 35.0793 40.284L35.1599 40.2533C35.1729 40.2484 35.185 40.241 35.1938 40.2302C35.2155 40.2034 35.2339 40.1666 35.2339 40.1298V37.6301C35.2339 37.5408 35.1616 37.4604 35.0712 37.4604H32.54C32.4496 37.4604 32.3773 37.5319 32.3773 37.6301V40.1298C32.3682 40.2101 32.4405 40.2905 32.5309 40.2905ZM35.0712 41.1832H32.54C31.9524 41.1832 31.4733 40.7101 31.4733 40.1298V37.6301C31.4733 37.0498 31.9614 36.5766 32.54 36.5766H35.0712C35.6588 36.5766 36.1379 37.0498 36.1379 37.6301V40.1298C36.1379 40.4244 36.0204 40.6833 35.8215 40.8797C35.6317 41.0582 35.3605 41.1832 35.0712 41.1832ZM41.128 52.9497H49.1187C49.1577 52.9497 49.1931 52.9271 49.2095 52.8917L51.2978 48.381C51.3039 48.3678 51.307 48.3535 51.307 48.3389V43.7008C51.307 41.9292 49.5207 42.2252 49.3731 42.9763C49.3624 43.0305 49.3186 43.0759 49.2634 43.0759H48.5594C48.5042 43.0759 48.4594 43.0311 48.4594 42.9759V42.7545C48.4594 41.4051 46.6026 41.3716 46.5103 42.6539C46.5064 42.709 46.462 42.7545 46.4068 42.7545H45.7028C45.6475 42.7545 45.6028 42.7097 45.6028 42.6545V42.4331C45.6028 41.0837 43.7459 41.0502 43.6537 42.3325C43.6497 42.3876 43.6054 42.4331 43.5501 42.4331H42.8461C42.7909 42.4331 42.7461 42.3883 42.7461 42.3331V37.7997C42.7461 36.4159 40.8025 36.4159 40.8025 37.7997V46.2451C40.8025 46.8344 39.8985 46.8344 39.8985 46.2451V44.269C39.8985 44.1879 39.807 44.1405 39.7408 44.1874L38.781 44.8665C38.7613 44.8805 38.7473 44.9011 38.7416 44.9246L38.2344 47.0146C38.2291 47.0366 38.2314 47.0598 38.2409 47.0804L40.9541 52.9063C40.9669 52.9338 40.9916 52.9539 41.0219 52.9537C41.0546 52.9534 41.0931 52.9497 41.128 52.9497ZM50.128 53.0392C50.105 53.0886 50.1261 53.1471 50.1738 53.1737C50.7132 53.4743 51.072 54.0458 51.072 54.6817V55.744C51.072 56.6993 50.2855 57.4671 49.3273 57.4671H41.128C40.1697 57.4671 39.3833 56.6904 39.3833 55.744V54.6817C39.3833 54.1396 39.6355 53.6457 40.0474 53.3297C40.086 53.3 40.1005 53.2478 40.08 53.2036L38.8587 50.5704C38.8423 50.5351 38.8069 50.5125 38.768 50.5125H22.3519C22.0988 50.5125 21.8999 50.3161 21.8999 50.0661V16.8468C21.8999 16.5968 22.0988 16.4004 22.3519 16.4004H45.2593C45.5124 16.4004 45.7113 16.5968 45.7113 16.8468V40.7901C45.7113 40.8237 45.7283 40.8549 45.7558 40.8743C45.895 40.9724 46.0185 41.0905 46.1226 41.2288C46.1598 41.2783 46.2321 41.2876 46.2804 41.2488C47.1479 40.5522 48.531 40.7587 49.102 41.7363C49.1321 41.7879 49.1993 41.806 49.2511 41.7761C50.4141 41.1058 52.211 41.6599 52.211 43.7097V48.4681C52.211 48.5485 52.1929 48.6199 52.1477 48.6913L50.128 53.0392ZM49.3273 53.8425H41.128C40.6669 53.8425 40.2873 54.2174 40.2873 54.6727V55.7351C40.2873 56.1904 40.6669 56.5654 41.128 56.5654H49.3273C49.7883 56.5654 50.168 56.1904 50.168 55.7351V54.6727C50.168 54.2174 49.7883 53.8425 49.3273 53.8425ZM39.8895 42.7991V41.2832C39.8895 41.228 39.8447 41.1832 39.7895 41.1832H38.7143C38.1267 41.1832 37.6476 40.7101 37.6476 40.1298V37.6301C37.6476 37.0498 38.1267 36.5766 38.7143 36.5766H40.2393C40.2696 36.5766 40.2984 36.5625 40.318 36.5394C41.3378 35.3366 43.6411 35.8291 43.6411 37.8175V40.5986C43.6411 40.6757 43.7253 40.7246 43.7953 40.6922C44.0762 40.5622 44.3836 40.5047 44.6891 40.5157C44.7478 40.5178 44.7982 40.472 44.7982 40.4132V17.3931C44.7982 17.3379 44.7534 17.2931 44.6982 17.2931H22.9039C22.8487 17.2931 22.8039 17.3379 22.8039 17.3931V49.5108C22.8039 49.5661 22.8487 49.6108 22.9039 49.6108H38.2591C38.3322 49.6108 38.3806 49.5349 38.3498 49.4686L37.3312 47.2807C37.286 47.1825 37.2769 47.0754 37.3041 46.9772L37.9007 44.5132C37.9278 44.4061 37.9911 44.3168 38.0815 44.2543L39.8472 43.0075C39.8737 42.9888 39.8895 42.9583 39.8895 42.9259V42.7991ZM39.7895 40.2905C39.8447 40.2905 39.8895 40.2457 39.8895 40.1905V37.8086C39.8895 37.7279 39.8933 37.6509 39.9008 37.5777C39.9071 37.5161 39.8602 37.4604 39.7983 37.4604H38.7233C38.6329 37.4604 38.5606 37.5408 38.5606 37.6301V40.1298C38.5606 40.2191 38.642 40.2905 38.7233 40.2905H39.7895ZM26.6097 26.4064C26.6097 26.4616 26.6545 26.5064 26.7097 26.5064H40.8924C40.9476 26.5064 40.9924 26.4616 40.9924 26.4064V21.7498C40.9924 21.6946 40.9476 21.6498 40.8924 21.6498H26.7097C26.6545 21.6498 26.6097 21.6946 26.6097 21.7498V26.4064ZM41.4444 27.3991H26.1577C25.9137 27.3991 25.7057 27.2027 25.7057 26.9527V21.2034C25.7057 20.9624 25.9046 20.757 26.1577 20.757H41.4444C41.6975 20.757 41.8964 20.9534 41.8964 21.2034V26.9527C41.8964 27.2027 41.6975 27.3991 41.4444 27.3991ZM32.5309 46.9058H35.0621C35.1525 46.9058 35.2249 46.8344 35.2249 46.7451V44.2454C35.2249 44.1561 35.1525 44.0847 35.0621 44.0847H32.5493C32.5372 44.0847 32.5251 44.0869 32.5138 44.0912L32.4332 44.1218C32.4201 44.1268 32.4079 44.1341 32.3997 44.1454C32.3804 44.1721 32.3682 44.2088 32.3682 44.2454V46.7451C32.3682 46.8344 32.4405 46.9058 32.5309 46.9058ZM35.0712 47.7985H32.54C31.9524 47.7985 31.4733 47.3254 31.4733 46.7451V44.2454C31.4733 43.9508 31.5908 43.6919 31.7897 43.4955C31.9885 43.308 32.2507 43.183 32.549 43.183H35.0802C35.6678 43.183 36.1469 43.6651 36.1469 44.2364V46.7362C36.1379 47.3254 35.6588 47.7985 35.0712 47.7985ZM26.3476 46.9058H28.8788C28.9692 46.9058 29.0505 46.8254 29.0505 46.7451V44.2454C29.0505 44.2007 29.0325 44.1561 29.0053 44.1293C28.9782 44.1025 28.933 44.0758 28.8878 44.0758H26.3566C26.2662 44.0758 26.1939 44.1561 26.1939 44.2364V46.7174C26.1939 46.7298 26.1962 46.7421 26.2007 46.7537L26.234 46.8392C26.2374 46.8478 26.2418 46.8561 26.248 46.863C26.274 46.8915 26.3072 46.9058 26.3476 46.9058ZM28.8788 47.7985H26.3476C26.0493 47.7985 25.7871 47.6825 25.5882 47.4861C25.3893 47.2897 25.2718 47.0308 25.2718 46.7362V44.2364C25.2718 43.6562 25.7509 43.183 26.3385 43.183H28.8697C29.1681 43.183 29.4302 43.2991 29.6291 43.4955C29.828 43.6829 29.9455 43.9597 29.9455 44.2454V46.7451C29.9545 47.3254 29.4754 47.7985 28.8788 47.7985ZM26.3476 40.2905H28.8788C28.9692 40.2905 29.0505 40.2191 29.0505 40.1298V37.6301C29.0505 37.5854 29.0325 37.5408 29.0053 37.514C28.9782 37.4872 28.933 37.4604 28.8878 37.4604H26.3566C26.2662 37.4604 26.1939 37.5319 26.1939 37.6301V40.1298C26.1849 40.2101 26.2572 40.2905 26.3476 40.2905ZM28.8788 41.1832H26.3476C25.76 41.1832 25.2809 40.7101 25.2809 40.1298V37.6301C25.2809 37.0498 25.76 36.5766 26.3476 36.5766H28.8788C29.1771 36.5766 29.4393 36.6927 29.6381 36.8891C29.837 37.0766 29.9545 37.3533 29.9545 37.639V40.1387C29.9545 40.7011 29.4754 41.1832 28.8788 41.1832ZM32.5309 33.6662H35.0438C35.0559 33.6662 35.068 33.664 35.0793 33.6597L35.1599 33.6291C35.1729 33.6242 35.1852 33.6168 35.1933 33.6056C35.2127 33.5788 35.2249 33.5422 35.2249 33.5056V31.0058C35.2249 30.9612 35.2068 30.9166 35.1797 30.8898C35.1525 30.863 35.1073 30.8362 35.0621 30.8362H32.5309C32.4405 30.8362 32.3682 30.9076 32.3682 31.0058V33.5056C32.3682 33.5859 32.4405 33.6662 32.5309 33.6662ZM35.0712 34.559H32.54C31.9524 34.559 31.4733 34.0858 31.4733 33.5056V31.0058C31.4733 30.4256 31.9614 29.9524 32.54 29.9524H35.0712C35.3695 29.9524 35.6317 30.0684 35.8305 30.2649C36.0204 30.4523 36.1469 30.7291 36.1469 31.0148V33.5145C36.1469 33.8091 36.0294 34.068 35.8305 34.2644C35.6317 34.4429 35.3605 34.559 35.0712 34.559ZM26.3476 33.6662H28.8604C28.8726 33.6662 28.8846 33.664 28.8959 33.6597L28.9766 33.6291C28.9896 33.6242 29.0017 33.6168 29.0104 33.6059C29.0321 33.5792 29.0505 33.5424 29.0505 33.5056V31.0058C29.0505 30.9166 28.9692 30.8362 28.8788 30.8362H26.3476C26.2572 30.8362 26.1849 30.9076 26.1849 31.0058V33.5056C26.1849 33.5859 26.2572 33.6662 26.3476 33.6662ZM28.8788 34.559H26.3476C25.76 34.559 25.2809 34.0858 25.2809 33.5056V31.0058C25.2809 30.4256 25.76 29.9524 26.3476 29.9524H28.8788C29.4664 29.9524 29.9455 30.4256 29.9455 31.0058V33.5056C29.9455 33.8002 29.828 34.0591 29.6291 34.2555C29.4483 34.4429 29.1771 34.559 28.8788 34.559ZM38.7143 33.6662H41.2271C41.2393 33.6662 41.2513 33.664 41.2627 33.6597L41.3433 33.6291C41.3563 33.6242 41.3685 33.6168 41.3767 33.6056C41.396 33.5788 41.4082 33.5422 41.4082 33.5056V31.0058C41.4082 30.9166 41.3269 30.8362 41.2455 30.8362H38.7143C38.6239 30.8362 38.5516 30.9166 38.5516 31.0058V33.5056C38.5516 33.5859 38.6239 33.6662 38.7143 33.6662ZM41.2545 34.559H38.7233C38.1357 34.559 37.6566 34.0858 37.6566 33.5056V31.0058C37.6566 30.4256 38.1357 29.9524 38.7233 29.9524H41.2545C41.8421 29.9524 42.3213 30.4256 42.3213 31.0058V33.5056C42.3213 33.8002 42.2037 34.0591 42.0049 34.2555C41.815 34.4429 41.5438 34.559 41.2545 34.559Z" fill="white" stroke="white" stroke-width="0.15"/>
</svg>
