<svg width="67" height="67" viewBox="0 0 67 67" fill="none" xmlns="http://www.w3.org/2000/svg">
<circle cx="32.4112" cy="33.0225" r="32.2667" fill="#133181"/>
<rect x="19.2722" y="14.4406" width="26.2778" height="38.1415" rx="4.45" stroke="white" stroke-width="1.1"/>
<line x1="19.6348" y1="17.9031" x2="45.1874" y2="17.9031" stroke="white" stroke-width="1.1"/>
<path d="M34.5839 41.8227H37.7432C37.7984 41.8227 37.8432 41.7779 37.8432 41.7227V35.9503C37.8432 35.8951 37.8879 35.8503 37.9432 35.8503H41.9851C42.0682 35.8503 42.115 35.7548 42.0642 35.6891L39.4161 32.266C39.4026 32.2485 39.3952 32.2269 39.3952 32.2048V24.4812C39.3952 24.426 39.3504 24.3812 39.2952 24.3812H36.5143C36.4591 24.3812 36.4143 24.426 36.4143 24.4812V28.3855C36.4143 28.477 36.3016 28.5204 36.2402 28.4526L32.488 24.3076C32.4473 24.2627 32.3763 24.264 32.3373 24.3104L22.7715 35.6859C22.7168 35.751 22.7631 35.8503 22.848 35.8503H26.3358C26.391 35.8503 26.4358 35.8951 26.4358 35.9503V41.7227C26.4358 41.7779 26.4805 41.8227 26.5358 41.8227H29.695M34.5839 41.8227V35.9503C34.5839 35.8951 34.5391 35.8503 34.4839 35.8503H29.795C29.7398 35.8503 29.695 35.8951 29.695 35.9503V41.8227M34.5839 41.8227H32.1395H29.695" stroke="white" stroke-width="1.1"/>
<line x1="19.6348" y1="48.9969" x2="46.1" y2="48.9969" stroke="white" stroke-width="1.1"/>
</svg>
