<svg width="67" height="67" viewBox="0 0 67 67" fill="none" xmlns="http://www.w3.org/2000/svg">
<circle cx="32.9" cy="33.0225" r="32.2667" fill="#133181"/>
<path d="M53.165 25.9144L34.165 13.9162C34.0058 13.8079 33.8176 13.75 33.625 13.75C33.4324 13.75 33.2442 13.8079 33.085 13.9162L14.085 25.9144C13.9442 26.0047 13.8283 26.1289 13.7479 26.2757C13.6675 26.4224 13.6253 26.5869 13.625 26.7542V32.753C13.6266 32.9324 13.6755 33.1083 13.7668 33.2627C13.8581 33.4172 13.9886 33.5449 14.145 33.6328C14.2986 33.7265 14.4751 33.776 14.655 33.776C14.8349 33.776 15.0114 33.7265 15.165 33.6328L17.4705 32.1336C17.537 32.0903 17.625 32.1381 17.625 32.2174V50.7502C17.625 51.0153 17.7304 51.2696 17.9179 51.4572C18.1054 51.6447 18.3598 51.75 18.625 51.75H48.625C48.8902 51.75 49.1446 51.6447 49.3321 51.4572C49.5196 51.2696 49.625 51.0153 49.625 50.7502V32.2149C49.625 32.1361 49.712 32.0882 49.7785 32.1304L52.085 33.5928C52.2473 33.6939 52.4339 33.7492 52.625 33.7528C52.7925 33.7537 52.9576 33.7124 53.105 33.6328C53.2614 33.5449 53.3919 33.4172 53.4832 33.2627C53.5745 33.1083 53.6234 32.9324 53.625 32.753V26.7542C53.6247 26.5869 53.5825 26.4224 53.5021 26.2757C53.4217 26.1289 53.3058 26.0047 53.165 25.9144ZM37.625 49.6503C37.625 49.7055 37.5802 49.7503 37.525 49.7503H29.725C29.6698 49.7503 29.625 49.7055 29.625 49.6503V39.8519C29.625 39.7967 29.6698 39.7519 29.725 39.7519H37.525C37.5802 39.7519 37.625 39.7967 37.625 39.8519V49.6503ZM47.625 49.6503C47.625 49.7055 47.5802 49.7503 47.525 49.7503H39.725C39.6698 49.7503 39.625 49.7055 39.625 49.6503V38.752C39.625 38.4869 39.5196 38.2325 39.3321 38.045C39.1446 37.8575 38.8902 37.7522 38.625 37.7522H28.625C28.3598 37.7522 28.1054 37.8575 27.9179 38.045C27.7304 38.2325 27.625 38.4869 27.625 38.752V49.6503C27.625 49.7055 27.5802 49.7503 27.525 49.7503H19.725C19.6698 49.7503 19.625 49.7055 19.625 49.6503V30.8483C19.625 30.8141 19.6426 30.7822 19.6715 30.7638L33.5715 21.9685C33.6042 21.9478 33.6458 21.9478 33.6785 21.9685L47.5785 30.7638C47.6074 30.7822 47.625 30.8141 47.625 30.8483V49.6503ZM51.625 30.7519C51.625 30.8307 51.5382 30.8785 51.4716 30.8365L34.165 19.915C34.0039 19.8116 33.8164 19.7567 33.625 19.7567C33.4336 19.7567 33.2461 19.8116 33.085 19.915L15.7784 30.8365C15.7118 30.8785 15.625 30.8307 15.625 30.7519V27.3692C15.625 27.3349 15.6426 27.303 15.6716 27.2847L33.5716 15.9697C33.6042 15.9491 33.6458 15.9491 33.6784 15.9697L51.5784 27.2847C51.6074 27.303 51.625 27.3349 51.625 27.3692V30.7519Z" fill="white" stroke="#133181" stroke-width="0.7"/>
<path d="M40.7222 13.4668H55.3888V51.6001H40.7222V13.4668Z" fill="#133181"/>
<path fill-rule="evenodd" clip-rule="evenodd" d="M43.9916 30.2145C44.0091 30.2135 44.0267 30.2174 44.0423 30.2254C45.1826 30.8102 46.2112 30.962 47.0766 30.962C47.9415 30.962 48.9723 30.8107 50.1104 30.2255C50.126 30.2174 50.1437 30.2135 50.1612 30.2145C51.4285 30.2862 52.4013 31.3494 52.4013 32.6708V38.992C52.4013 39.89 52.2599 40.4651 52.0073 40.9032C51.7548 41.3422 51.363 41.685 50.765 42.0432C50.609 42.1361 50.5097 42.3104 50.5034 42.5021L50.142 52.8368C50.1371 53.0106 50.0763 53.1065 49.8777 53.2299C49.6787 53.3504 49.3504 53.4366 49.0058 53.4366C48.659 53.4366 48.2999 53.3509 48.0378 53.2101C47.807 53.088 47.6697 52.9403 47.5985 52.7742C47.5935 52.7625 47.5912 52.75 47.5912 52.7373V44.5415C47.5962 44.2821 47.4284 43.994 47.0766 43.994C46.727 43.994 46.5565 44.2821 46.5615 44.5415V52.7377C46.5615 52.7498 46.5594 52.7618 46.5548 52.773C46.4864 52.9398 46.3457 53.0874 46.1176 53.2096C45.8551 53.3504 45.4942 53.4361 45.1492 53.4361C44.8046 53.4361 44.4741 53.3504 44.2755 53.2294C44.0773 53.106 44.0179 53.0101 44.0107 52.8363L43.6502 42.5016C43.643 42.3099 43.5437 42.1356 43.3877 42.0427C42.7906 41.6845 42.4007 41.3417 42.1477 40.9027C41.8933 40.4646 41.7509 39.8895 41.7509 38.9915V32.6713C41.7514 31.3494 42.7273 30.2862 43.9916 30.2145ZM44.1249 29.1113C42.2569 29.1113 40.7222 30.6996 40.7222 32.6708L40.7244 38.9915C40.7244 40.0153 40.8967 40.8247 41.2744 41.4778C41.583 42.0151 42.0657 42.4528 42.5873 42.808C42.6138 42.8261 42.6303 42.8556 42.6314 42.8877L42.9837 52.8765C43.005 53.454 43.3523 53.9255 43.7631 54.1777C44.1766 54.4319 44.6586 54.5336 45.1492 54.5336C45.6384 54.5336 46.1362 54.4271 46.5783 54.1928C46.7644 54.0936 46.8908 53.9904 47.0091 53.8839C47.0476 53.8493 47.1058 53.8491 47.1443 53.8836C47.2634 53.9902 47.3882 54.0935 47.5749 54.1928C48.016 54.4271 48.5148 54.5336 49.0058 54.5336C49.495 54.5336 49.9793 54.4324 50.3896 54.1777C50.8031 53.9255 51.1499 53.454 51.169 52.8765L51.524 42.8876C51.5251 42.8556 51.5416 42.8261 51.5681 42.808C52.0884 42.4529 52.5711 42.0151 52.881 41.4778C53.2565 40.8247 53.4292 40.0153 53.4292 38.9915L53.4333 32.6708C53.4333 30.6996 51.8958 29.1113 50.0287 29.1113C49.9457 29.1113 49.8632 29.1312 49.7875 29.1718C49.0153 29.6051 48.0754 29.865 47.0766 29.865C46.0796 29.865 45.1378 29.6051 44.3653 29.1718C44.2923 29.1317 44.2102 29.1113 44.1249 29.1113Z" fill="white"/>
<path fill-rule="evenodd" clip-rule="evenodd" d="M47.0802 20.5223C48.9364 20.5223 50.3475 21.8832 50.3475 23.4968V24.9552C50.3475 26.5699 48.9364 27.924 47.0802 27.924C45.2245 27.924 43.8109 26.5694 43.8109 24.9552V23.4968C43.8109 21.8827 45.225 20.5223 47.0802 20.5223ZM47.0802 19.334C44.6871 19.334 42.6777 21.1611 42.6777 23.4963V24.9547C42.6777 27.2899 44.6871 29.1118 47.0802 29.1118C49.4738 29.1118 51.4777 27.2905 51.4777 24.9547V23.4963C51.4782 21.1611 49.4743 19.334 47.0802 19.334Z" fill="white"/>
</svg>
