<svg width="66" height="67" viewBox="0 0 66 67" fill="none" xmlns="http://www.w3.org/2000/svg">
<circle cx="32.3887" cy="33.0225" r="32.2667" fill="#133181"/>
<path d="M26.3055 26.8451C26.4036 27.4023 25.9323 27.8647 25.3666 27.8647V27.8647C24.8009 27.8647 24.3658 27.396 24.2096 26.8523C24.111 26.5092 23.9576 26.2029 23.7492 25.9334C23.3598 25.416 22.7428 25.1573 21.8982 25.1573C21.3591 25.1573 20.9158 25.2566 20.5684 25.4551C20.2269 25.6537 19.9723 25.9033 19.8046 26.2042C19.6429 26.505 19.562 26.8058 19.562 27.1066C19.562 27.4676 19.6638 27.8075 19.8675 28.1264C20.0712 28.4392 20.3228 28.722 20.6223 28.9747C20.9218 29.2213 21.2153 29.4289 21.5029 29.5973L24.9892 31.6549C25.2228 31.7873 25.4894 31.9648 25.7889 32.1874C26.0884 32.41 26.3759 32.6837 26.6515 33.0086C26.9271 33.3274 27.1547 33.7035 27.3344 34.1366C27.5201 34.5698 27.6129 35.0662 27.6129 35.6257C27.6129 36.0709 27.4961 36.5161 27.2625 36.9613C27.0349 37.4065 26.7294 37.8006 26.346 38.1435C25.9745 38.4811 25.5652 38.7225 25.1183 38.8676C25.1056 38.8717 25.097 38.8835 25.097 38.8968V38.8968C25.097 38.9055 25.1008 38.9139 25.1074 38.9197C25.5334 39.2966 25.8474 39.7328 26.0495 40.2281C26.2531 40.7215 26.355 41.2569 26.355 41.8345C26.355 42.7249 26.1393 43.4559 25.708 44.0274C25.2767 44.605 24.7136 45.0321 24.0188 45.3089C23.3239 45.5916 22.5811 45.733 21.7904 45.733C20.8439 45.733 20.0023 45.5435 19.2655 45.1645C18.5287 44.7915 17.9506 44.256 17.5313 43.5581C17.271 43.1287 17.0915 42.6471 16.9928 42.1134C16.8881 41.5473 17.369 41.0764 17.9446 41.0764V41.0764C18.5203 41.0764 18.9573 41.5562 19.1338 42.1042C19.2631 42.5056 19.4777 42.8399 19.7777 43.1069C20.3108 43.5822 20.9817 43.8199 21.7904 43.8199C22.4553 43.8199 23.0394 43.6544 23.5425 43.3235C24.0517 42.9986 24.3063 42.5023 24.3063 41.8345C24.3063 41.3772 24.2045 40.9952 24.0008 40.6884C23.7971 40.3815 23.5455 40.1228 23.246 39.9123C22.9465 39.7017 22.653 39.5122 22.3655 39.3437L18.8791 37.3223C18.6455 37.1839 18.3789 37.0034 18.0794 36.7808C17.7799 36.5582 17.4924 36.2844 17.2168 35.9596C16.9413 35.6287 16.7106 35.2466 16.5249 34.8135C16.3452 34.3743 16.2554 33.8749 16.2554 33.3154C16.2554 32.8822 16.3632 32.44 16.5788 31.9888C16.7945 31.5376 17.091 31.1345 17.4684 30.7795C17.8343 30.4353 18.2538 30.1901 18.7267 30.0439C18.7531 30.0358 18.7713 30.0116 18.7713 29.984V29.984C18.7713 29.9676 18.7648 29.9518 18.7532 29.9401C18.3841 29.5657 18.0847 29.1476 17.8548 28.6859C17.6271 28.2106 17.5133 27.6842 17.5133 27.1066C17.5133 26.3606 17.702 25.6988 18.0794 25.1212C18.4568 24.5376 18.975 24.0804 19.6339 23.7495C20.2928 23.4126 21.0476 23.2441 21.8982 23.2441C22.8207 23.2441 23.6174 23.4427 24.2883 23.8398C24.9592 24.2308 25.4774 24.7753 25.8428 25.4732C26.064 25.8919 26.2182 26.3492 26.3055 26.8451ZM25.6362 35.6257C25.6362 35.2767 25.5553 34.9579 25.3935 34.6691C25.2318 34.3743 25.0221 34.1126 24.7646 33.8839C24.507 33.6493 24.2344 33.4478 23.9469 33.2793L20.4246 31.2217C20.161 31.0653 19.8555 31.0623 19.5081 31.2127C19.1666 31.3631 18.8671 31.6248 18.6096 31.9978C18.358 32.3709 18.2322 32.81 18.2322 33.3154C18.2322 33.893 18.4059 34.3683 18.7533 34.7413C19.1067 35.1083 19.5081 35.4271 19.9574 35.6979L23.2999 37.6471C23.5515 37.7915 23.86 37.7915 24.2254 37.6471C24.5968 37.5027 24.9233 37.2531 25.2049 36.8981C25.4924 36.5431 25.6362 36.119 25.6362 35.6257Z" fill="white"/>
<path d="M38.2267 26.8451C38.3248 27.4023 37.8535 27.8647 37.2878 27.8647V27.8647C36.7221 27.8647 36.287 27.396 36.1308 26.8523C36.0322 26.5092 35.8788 26.2029 35.6704 25.9334C35.281 25.416 34.664 25.1573 33.8194 25.1573C33.2803 25.1573 32.837 25.2566 32.4896 25.4551C32.1481 25.6537 31.8935 25.9033 31.7258 26.2042C31.5641 26.505 31.4832 26.8058 31.4832 27.1066C31.4832 27.4676 31.585 27.8075 31.7887 28.1264C31.9924 28.4392 32.244 28.722 32.5435 28.9747C32.843 29.2213 33.1365 29.4289 33.424 29.5973L36.9104 31.6549C37.144 31.7873 37.4106 31.9648 37.7101 32.1874C38.0096 32.41 38.2971 32.6837 38.5727 33.0086C38.8482 33.3274 39.0759 33.7035 39.2556 34.1366C39.4413 34.5698 39.5341 35.0662 39.5341 35.6257C39.5341 36.0709 39.4173 36.5161 39.1837 36.9613C38.9561 37.4065 38.6506 37.8006 38.2672 38.1435C37.8957 38.4811 37.4864 38.7225 37.0395 38.8676C37.0268 38.8717 37.0182 38.8835 37.0182 38.8968V38.8968C37.0182 38.9055 37.022 38.9139 37.0286 38.9197C37.4546 39.2966 37.7686 39.7328 37.9707 40.2281C38.1743 40.7215 38.2762 41.2569 38.2762 41.8345C38.2762 42.7249 38.0605 43.4559 37.6292 44.0274C37.1979 44.605 36.6348 45.0321 35.94 45.3089C35.2451 45.5916 34.5023 45.733 33.7116 45.733C32.7651 45.733 31.9235 45.5435 31.1867 45.1645C30.4499 44.7915 29.8718 44.256 29.4525 43.5581C29.1922 43.1287 29.0127 42.6471 28.914 42.1134C28.8093 41.5473 29.2902 41.0764 29.8658 41.0764V41.0764C30.4415 41.0764 30.8785 41.5562 31.055 42.1042C31.1843 42.5056 31.3989 42.8399 31.6988 43.1069C32.232 43.5822 32.9029 43.8199 33.7116 43.8199C34.3765 43.8199 34.9606 43.6544 35.4637 43.3235C35.9729 42.9986 36.2275 42.5023 36.2275 41.8345C36.2275 41.3772 36.1257 40.9952 35.922 40.6884C35.7183 40.3815 35.4667 40.1228 35.1672 39.9123C34.8677 39.7017 34.5742 39.5122 34.2866 39.3437L30.8003 37.3223C30.5667 37.1839 30.3001 37.0034 30.0006 36.7808C29.7011 36.5582 29.4136 36.2844 29.138 35.9596C28.8624 35.6287 28.6318 35.2466 28.4461 34.8135C28.2664 34.3743 28.1766 33.8749 28.1766 33.3154C28.1766 32.8822 28.2844 32.44 28.5 31.9888C28.7157 31.5376 29.0122 31.1345 29.3896 30.7795C29.7555 30.4353 30.175 30.1901 30.6479 30.0439C30.6743 30.0358 30.6925 30.0116 30.6925 29.984V29.984C30.6925 29.9676 30.6859 29.9518 30.6744 29.9401C30.3053 29.5657 30.0058 29.1476 29.776 28.6859C29.5483 28.2106 29.4345 27.6842 29.4345 27.1066C29.4345 26.3606 29.6232 25.6988 30.0006 25.1212C30.378 24.5376 30.8961 24.0804 31.5551 23.7495C32.214 23.4126 32.9688 23.2441 33.8194 23.2441C34.7419 23.2441 35.5386 23.4427 36.2095 23.8398C36.8804 24.2308 37.3986 24.7753 37.764 25.4732C37.9852 25.8919 38.1394 26.3492 38.2267 26.8451ZM37.5573 35.6257C37.5573 35.2767 37.4765 34.9579 37.3147 34.6691C37.153 34.3743 36.9433 34.1126 36.6858 33.8839C36.4282 33.6493 36.1556 33.4478 35.8681 33.2793L32.3458 31.2217C32.0822 31.0653 31.7767 31.0623 31.4293 31.2127C31.0878 31.3631 30.7883 31.6248 30.5307 31.9978C30.2791 32.3709 30.1534 32.81 30.1534 33.3154C30.1534 33.893 30.3271 34.3683 30.6745 34.7413C31.0279 35.1083 31.4293 35.4271 31.8786 35.6979L35.2211 37.6471C35.4727 37.7915 35.7812 37.7915 36.1466 37.6471C36.518 37.5027 36.8445 37.2531 37.126 36.8981C37.4136 36.5431 37.5573 36.119 37.5573 35.6257Z" fill="white"/>
<path d="M50.1479 26.8451C50.246 27.4023 49.7747 27.8647 49.209 27.8647V27.8647C48.6433 27.8647 48.2082 27.396 48.052 26.8523C47.9534 26.5092 47.8 26.2029 47.5916 25.9334C47.2023 25.416 46.5852 25.1573 45.7406 25.1573C45.2015 25.1573 44.7582 25.2566 44.4108 25.4551C44.0693 25.6537 43.8147 25.9033 43.647 26.2042C43.4853 26.505 43.4044 26.8058 43.4044 27.1066C43.4044 27.4676 43.5062 27.8075 43.7099 28.1264C43.9136 28.4392 44.1652 28.722 44.4647 28.9747C44.7642 29.2213 45.0577 29.4289 45.3453 29.5973L48.8316 31.6549C49.0652 31.7873 49.3318 31.9648 49.6313 32.1874C49.9308 32.41 50.2183 32.6837 50.4939 33.0086C50.7695 33.3274 50.9971 33.7035 51.1768 34.1366C51.3625 34.5698 51.4553 35.0662 51.4553 35.6257C51.4553 36.0709 51.3385 36.5161 51.1049 36.9613C50.8773 37.4065 50.5718 37.8006 50.1884 38.1435C49.8169 38.4811 49.4076 38.7225 48.9607 38.8676C48.948 38.8717 48.9394 38.8835 48.9394 38.8968V38.8968C48.9394 38.9055 48.9432 38.9139 48.9498 38.9197C49.3758 39.2966 49.6898 39.7328 49.8919 40.2281C50.0956 40.7215 50.1974 41.2569 50.1974 41.8345C50.1974 42.7249 49.9817 43.4559 49.5504 44.0274C49.1191 44.605 48.556 45.0321 47.8612 45.3089C47.1663 45.5916 46.4235 45.733 45.6328 45.733C44.6863 45.733 43.8447 45.5435 43.1079 45.1645C42.3711 44.7915 41.793 44.256 41.3737 43.5581C41.1134 43.1287 40.9339 42.6471 40.8352 42.1134C40.7305 41.5473 41.2114 41.0764 41.787 41.0764V41.0764C42.3627 41.0764 42.7997 41.5562 42.9762 42.1042C43.1055 42.5056 43.3201 42.8399 43.6201 43.1069C44.1532 43.5822 44.8241 43.8199 45.6328 43.8199C46.2977 43.8199 46.8818 43.6544 47.3849 43.3235C47.8941 42.9986 48.1487 42.5023 48.1487 41.8345C48.1487 41.3772 48.0469 40.9952 47.8432 40.6884C47.6395 40.3815 47.3879 40.1228 47.0884 39.9123C46.7889 39.7017 46.4954 39.5122 46.2079 39.3437L42.7215 37.3223C42.4879 37.1839 42.2213 37.0034 41.9218 36.7808C41.6223 36.5582 41.3348 36.2844 41.0592 35.9596C40.7837 35.6287 40.553 35.2466 40.3673 34.8135C40.1876 34.3743 40.0978 33.8749 40.0978 33.3154C40.0978 32.8822 40.2056 32.44 40.4212 31.9888C40.6369 31.5376 40.9334 31.1345 41.3108 30.7795C41.6767 30.4353 42.0962 30.1901 42.5691 30.0439C42.5955 30.0358 42.6137 30.0116 42.6137 29.984V29.984C42.6137 29.9676 42.6072 29.9518 42.5956 29.9401C42.2265 29.5657 41.9271 29.1476 41.6972 28.6859C41.4695 28.2106 41.3557 27.6842 41.3557 27.1066C41.3557 26.3606 41.5444 25.6988 41.9218 25.1212C42.2992 24.5376 42.8174 24.0804 43.4763 23.7495C44.1352 23.4126 44.89 23.2441 45.7406 23.2441C46.6631 23.2441 47.4598 23.4427 48.1307 23.8398C48.8017 24.2308 49.3198 24.7753 49.6852 25.4732C49.9064 25.8919 50.0606 26.3492 50.1479 26.8451ZM49.4786 35.6257C49.4786 35.2767 49.3977 34.9579 49.2359 34.6691C49.0742 34.3743 48.8645 34.1126 48.607 33.8839C48.3494 33.6493 48.0768 33.4478 47.7893 33.2793L44.267 31.2217C44.0034 31.0653 43.6979 31.0623 43.3505 31.2127C43.009 31.3631 42.7095 31.6248 42.452 31.9978C42.2004 32.3709 42.0746 32.81 42.0746 33.3154C42.0746 33.893 42.2483 34.3683 42.5957 34.7413C42.9491 35.1083 43.3505 35.4271 43.7998 35.6979L47.1423 37.6471C47.3939 37.7915 47.7024 37.7915 48.0678 37.6471C48.4392 37.5027 48.7657 37.2531 49.0473 36.8981C49.3348 36.5431 49.4786 36.119 49.4786 35.6257Z" fill="white"/>
<path d="M26.3055 26.8451C26.4036 27.4023 25.9323 27.8647 25.3666 27.8647V27.8647C24.8009 27.8647 24.3658 27.396 24.2096 26.8523C24.111 26.5092 23.9576 26.2029 23.7492 25.9334C23.3598 25.416 22.7428 25.1573 21.8982 25.1573C21.3591 25.1573 20.9158 25.2566 20.5684 25.4551C20.2269 25.6537 19.9723 25.9033 19.8046 26.2042C19.6429 26.505 19.562 26.8058 19.562 27.1066C19.562 27.4676 19.6638 27.8075 19.8675 28.1264C20.0712 28.4392 20.3228 28.722 20.6223 28.9747C20.9218 29.2213 21.2153 29.4289 21.5029 29.5973L24.9892 31.6549C25.2228 31.7873 25.4894 31.9648 25.7889 32.1874C26.0884 32.41 26.3759 32.6837 26.6515 33.0086C26.9271 33.3274 27.1547 33.7035 27.3344 34.1366C27.5201 34.5698 27.6129 35.0662 27.6129 35.6257C27.6129 36.0709 27.4961 36.5161 27.2625 36.9613C27.0349 37.4065 26.7294 37.8006 26.346 38.1435C25.9745 38.4811 25.5652 38.7225 25.1183 38.8676C25.1056 38.8717 25.097 38.8835 25.097 38.8968V38.8968C25.097 38.9055 25.1008 38.9139 25.1074 38.9197C25.5334 39.2966 25.8474 39.7328 26.0495 40.2281C26.2531 40.7215 26.355 41.2569 26.355 41.8345C26.355 42.7249 26.1393 43.4559 25.708 44.0274C25.2767 44.605 24.7136 45.0321 24.0188 45.3089C23.3239 45.5916 22.5811 45.733 21.7904 45.733C20.8439 45.733 20.0023 45.5435 19.2655 45.1645C18.5287 44.7915 17.9506 44.256 17.5313 43.5581C17.271 43.1287 17.0915 42.6471 16.9928 42.1134C16.8881 41.5473 17.369 41.0764 17.9446 41.0764V41.0764C18.5203 41.0764 18.9573 41.5562 19.1338 42.1042C19.2631 42.5056 19.4777 42.8399 19.7777 43.1069C20.3108 43.5822 20.9817 43.8199 21.7904 43.8199C22.4553 43.8199 23.0394 43.6544 23.5425 43.3235C24.0517 42.9986 24.3063 42.5023 24.3063 41.8345C24.3063 41.3772 24.2045 40.9952 24.0008 40.6884C23.7971 40.3815 23.5455 40.1228 23.246 39.9123C22.9465 39.7017 22.653 39.5122 22.3655 39.3437L18.8791 37.3223C18.6455 37.1839 18.3789 37.0034 18.0794 36.7808C17.7799 36.5582 17.4924 36.2844 17.2168 35.9596C16.9413 35.6287 16.7106 35.2466 16.5249 34.8135C16.3452 34.3743 16.2554 33.8749 16.2554 33.3154C16.2554 32.8822 16.3632 32.44 16.5788 31.9888C16.7945 31.5376 17.091 31.1345 17.4684 30.7795C17.8343 30.4353 18.2538 30.1901 18.7267 30.0439C18.7531 30.0358 18.7713 30.0116 18.7713 29.984V29.984C18.7713 29.9676 18.7648 29.9518 18.7532 29.9401C18.3841 29.5657 18.0847 29.1476 17.8548 28.6859C17.6271 28.2106 17.5133 27.6842 17.5133 27.1066C17.5133 26.3606 17.702 25.6988 18.0794 25.1212C18.4568 24.5376 18.975 24.0804 19.6339 23.7495C20.2928 23.4126 21.0476 23.2441 21.8982 23.2441C22.8207 23.2441 23.6174 23.4427 24.2883 23.8398C24.9592 24.2308 25.4774 24.7753 25.8428 25.4732C26.064 25.8919 26.2182 26.3492 26.3055 26.8451ZM25.6362 35.6257C25.6362 35.2767 25.5553 34.9579 25.3935 34.6691C25.2318 34.3743 25.0221 34.1126 24.7646 33.8839C24.507 33.6493 24.2344 33.4478 23.9469 33.2793L20.4246 31.2217C20.161 31.0653 19.8555 31.0623 19.5081 31.2127C19.1666 31.3631 18.8671 31.6248 18.6096 31.9978C18.358 32.3709 18.2322 32.81 18.2322 33.3154C18.2322 33.893 18.4059 34.3683 18.7533 34.7413C19.1067 35.1083 19.5081 35.4271 19.9574 35.6979L23.2999 37.6471C23.5515 37.7915 23.86 37.7915 24.2254 37.6471C24.5968 37.5027 24.9233 37.2531 25.2049 36.8981C25.4924 36.5431 25.6362 36.119 25.6362 35.6257Z" stroke="#133181" stroke-width="0.7"/>
<path d="M38.2267 26.8451C38.3248 27.4023 37.8535 27.8647 37.2878 27.8647V27.8647C36.7221 27.8647 36.287 27.396 36.1308 26.8523C36.0322 26.5092 35.8788 26.2029 35.6704 25.9334C35.281 25.416 34.664 25.1573 33.8194 25.1573C33.2803 25.1573 32.837 25.2566 32.4896 25.4551C32.1481 25.6537 31.8935 25.9033 31.7258 26.2042C31.5641 26.505 31.4832 26.8058 31.4832 27.1066C31.4832 27.4676 31.585 27.8075 31.7887 28.1264C31.9924 28.4392 32.244 28.722 32.5435 28.9747C32.843 29.2213 33.1365 29.4289 33.424 29.5973L36.9104 31.6549C37.144 31.7873 37.4106 31.9648 37.7101 32.1874C38.0096 32.41 38.2971 32.6837 38.5727 33.0086C38.8482 33.3274 39.0759 33.7035 39.2556 34.1366C39.4413 34.5698 39.5341 35.0662 39.5341 35.6257C39.5341 36.0709 39.4173 36.5161 39.1837 36.9613C38.9561 37.4065 38.6506 37.8006 38.2672 38.1435C37.8957 38.4811 37.4864 38.7225 37.0395 38.8676C37.0268 38.8717 37.0182 38.8835 37.0182 38.8968V38.8968C37.0182 38.9055 37.022 38.9139 37.0286 38.9197C37.4546 39.2966 37.7686 39.7328 37.9707 40.2281C38.1743 40.7215 38.2762 41.2569 38.2762 41.8345C38.2762 42.7249 38.0605 43.4559 37.6292 44.0274C37.1979 44.605 36.6348 45.0321 35.94 45.3089C35.2451 45.5916 34.5023 45.733 33.7116 45.733C32.7651 45.733 31.9235 45.5435 31.1867 45.1645C30.4499 44.7915 29.8718 44.256 29.4525 43.5581C29.1922 43.1287 29.0127 42.6471 28.914 42.1134C28.8093 41.5473 29.2902 41.0764 29.8658 41.0764V41.0764C30.4415 41.0764 30.8785 41.5562 31.055 42.1042C31.1843 42.5056 31.3989 42.8399 31.6988 43.1069C32.232 43.5822 32.9029 43.8199 33.7116 43.8199C34.3765 43.8199 34.9606 43.6544 35.4637 43.3235C35.9729 42.9986 36.2275 42.5023 36.2275 41.8345C36.2275 41.3772 36.1257 40.9952 35.922 40.6884C35.7183 40.3815 35.4667 40.1228 35.1672 39.9123C34.8677 39.7017 34.5742 39.5122 34.2866 39.3437L30.8003 37.3223C30.5667 37.1839 30.3001 37.0034 30.0006 36.7808C29.7011 36.5582 29.4136 36.2844 29.138 35.9596C28.8624 35.6287 28.6318 35.2466 28.4461 34.8135C28.2664 34.3743 28.1766 33.8749 28.1766 33.3154C28.1766 32.8822 28.2844 32.44 28.5 31.9888C28.7157 31.5376 29.0122 31.1345 29.3896 30.7795C29.7555 30.4353 30.175 30.1901 30.6479 30.0439C30.6743 30.0358 30.6925 30.0116 30.6925 29.984V29.984C30.6925 29.9676 30.6859 29.9518 30.6744 29.9401C30.3053 29.5657 30.0058 29.1476 29.776 28.6859C29.5483 28.2106 29.4345 27.6842 29.4345 27.1066C29.4345 26.3606 29.6232 25.6988 30.0006 25.1212C30.378 24.5376 30.8961 24.0804 31.5551 23.7495C32.214 23.4126 32.9688 23.2441 33.8194 23.2441C34.7419 23.2441 35.5386 23.4427 36.2095 23.8398C36.8804 24.2308 37.3986 24.7753 37.764 25.4732C37.9852 25.8919 38.1394 26.3492 38.2267 26.8451ZM37.5573 35.6257C37.5573 35.2767 37.4765 34.9579 37.3147 34.6691C37.153 34.3743 36.9433 34.1126 36.6858 33.8839C36.4282 33.6493 36.1556 33.4478 35.8681 33.2793L32.3458 31.2217C32.0822 31.0653 31.7767 31.0623 31.4293 31.2127C31.0878 31.3631 30.7883 31.6248 30.5307 31.9978C30.2791 32.3709 30.1534 32.81 30.1534 33.3154C30.1534 33.893 30.3271 34.3683 30.6745 34.7413C31.0279 35.1083 31.4293 35.4271 31.8786 35.6979L35.2211 37.6471C35.4727 37.7915 35.7812 37.7915 36.1466 37.6471C36.518 37.5027 36.8445 37.2531 37.126 36.8981C37.4136 36.5431 37.5573 36.119 37.5573 35.6257Z" stroke="#133181" stroke-width="0.7"/>
<path d="M50.1479 26.8451C50.246 27.4023 49.7747 27.8647 49.209 27.8647V27.8647C48.6433 27.8647 48.2082 27.396 48.052 26.8523C47.9534 26.5092 47.8 26.2029 47.5916 25.9334C47.2023 25.416 46.5852 25.1573 45.7406 25.1573C45.2015 25.1573 44.7582 25.2566 44.4108 25.4551C44.0693 25.6537 43.8147 25.9033 43.647 26.2042C43.4853 26.505 43.4044 26.8058 43.4044 27.1066C43.4044 27.4676 43.5062 27.8075 43.7099 28.1264C43.9136 28.4392 44.1652 28.722 44.4647 28.9747C44.7642 29.2213 45.0577 29.4289 45.3453 29.5973L48.8316 31.6549C49.0652 31.7873 49.3318 31.9648 49.6313 32.1874C49.9308 32.41 50.2183 32.6837 50.4939 33.0086C50.7695 33.3274 50.9971 33.7035 51.1768 34.1366C51.3625 34.5698 51.4553 35.0662 51.4553 35.6257C51.4553 36.0709 51.3385 36.5161 51.1049 36.9613C50.8773 37.4065 50.5718 37.8006 50.1884 38.1435C49.8169 38.4811 49.4076 38.7225 48.9607 38.8676C48.948 38.8717 48.9394 38.8835 48.9394 38.8968V38.8968C48.9394 38.9055 48.9432 38.9139 48.9498 38.9197C49.3758 39.2966 49.6898 39.7328 49.8919 40.2281C50.0956 40.7215 50.1974 41.2569 50.1974 41.8345C50.1974 42.7249 49.9817 43.4559 49.5504 44.0274C49.1191 44.605 48.556 45.0321 47.8612 45.3089C47.1663 45.5916 46.4235 45.733 45.6328 45.733C44.6863 45.733 43.8447 45.5435 43.1079 45.1645C42.3711 44.7915 41.793 44.256 41.3737 43.5581C41.1134 43.1287 40.9339 42.6471 40.8352 42.1134C40.7305 41.5473 41.2114 41.0764 41.787 41.0764V41.0764C42.3627 41.0764 42.7997 41.5562 42.9762 42.1042C43.1055 42.5056 43.3201 42.8399 43.6201 43.1069C44.1532 43.5822 44.8241 43.8199 45.6328 43.8199C46.2977 43.8199 46.8818 43.6544 47.3849 43.3235C47.8941 42.9986 48.1487 42.5023 48.1487 41.8345C48.1487 41.3772 48.0469 40.9952 47.8432 40.6884C47.6395 40.3815 47.3879 40.1228 47.0884 39.9123C46.7889 39.7017 46.4954 39.5122 46.2079 39.3437L42.7215 37.3223C42.4879 37.1839 42.2213 37.0034 41.9218 36.7808C41.6223 36.5582 41.3348 36.2844 41.0592 35.9596C40.7837 35.6287 40.553 35.2466 40.3673 34.8135C40.1876 34.3743 40.0978 33.8749 40.0978 33.3154C40.0978 32.8822 40.2056 32.44 40.4212 31.9888C40.6369 31.5376 40.9334 31.1345 41.3108 30.7795C41.6767 30.4353 42.0962 30.1901 42.5691 30.0439C42.5955 30.0358 42.6137 30.0116 42.6137 29.984V29.984C42.6137 29.9676 42.6072 29.9518 42.5956 29.9401C42.2265 29.5657 41.9271 29.1476 41.6972 28.6859C41.4695 28.2106 41.3557 27.6842 41.3557 27.1066C41.3557 26.3606 41.5444 25.6988 41.9218 25.1212C42.2992 24.5376 42.8174 24.0804 43.4763 23.7495C44.1352 23.4126 44.89 23.2441 45.7406 23.2441C46.6631 23.2441 47.4598 23.4427 48.1307 23.8398C48.8017 24.2308 49.3198 24.7753 49.6852 25.4732C49.9064 25.8919 50.0606 26.3492 50.1479 26.8451ZM49.4786 35.6257C49.4786 35.2767 49.3977 34.9579 49.2359 34.6691C49.0742 34.3743 48.8645 34.1126 48.607 33.8839C48.3494 33.6493 48.0768 33.4478 47.7893 33.2793L44.267 31.2217C44.0034 31.0653 43.6979 31.0623 43.3505 31.2127C43.009 31.3631 42.7095 31.6248 42.452 31.9978C42.2004 32.3709 42.0746 32.81 42.0746 33.3154C42.0746 33.893 42.2483 34.3683 42.5957 34.7413C42.9491 35.1083 43.3505 35.4271 43.7998 35.6979L47.1423 37.6471C47.3939 37.7915 47.7024 37.7915 48.0678 37.6471C48.4392 37.5027 48.7657 37.2531 49.0473 36.8981C49.3348 36.5431 49.4786 36.119 49.4786 35.6257Z" stroke="#133181" stroke-width="0.7"/>
</svg>
